<?xml version="1.0" encoding="UTF-8"?>
<svg width="38px" height="38px" viewBox="0 0 38 38" version="1.1" xmlns="http://www.w3.org/2000/svg" xmlns:xlink="http://www.w3.org/1999/xlink">
    <!-- Generator: Sketch 57.1 (83088) - https://sketch.com -->
    <title>docekr</title>
    <desc>Created with Sketch.</desc>
    <g id="docekr" stroke="none" stroke-width="1" fill="none" fill-rule="evenodd">
        <g id="docker-1" fill="#B7C3CE" fill-rule="nonzero">
            <path d="M7.62752199,21.7553957 C6.54630109,21.7553957 5.563373,20.881295 5.563373,19.8129496 C5.563373,18.7446043 6.44800828,17.8705036 7.62752199,17.8705036 C8.8070357,17.8705036 9.69167098,18.7446043 9.69167098,19.8129496 C9.69167098,20.881295 8.70874289,21.7553957 7.62752199,21.7553957 Z M32.9870667,11.1690647 C32.7904811,9.61510791 31.807553,8.35251799 30.5297465,7.38129496 L30.0382825,6.99280576 L29.6451112,7.47841727 C28.8587688,8.35251799 28.5638903,9.90647482 28.6621831,11.0719424 C28.7604759,11.9460432 29.0553544,12.8201439 29.5468184,13.5 C29.1536472,13.6942446 28.6621831,13.8884892 28.2690119,14.0827338 C27.3843766,14.3741007 26.4997413,14.471223 25.6151061,14.471223 L0.157268495,14.471223 L0.0589756855,15.0539568 C-0.137609933,16.8992806 0.157268495,18.8417266 0.943610967,20.5899281 L1.3367822,21.2697842 L1.3367822,21.3669065 C3.69580962,25.2517986 7.92240041,27 12.5421624,27 C21.3885153,27 28.6621831,23.2122302 32.1024315,15.0539568 C34.3631661,15.1510791 36.6239007,14.5683453 37.7051216,12.4316547 L38,11.9460432 L37.508536,11.6546763 C36.2307294,10.8776978 34.4614589,10.7805755 32.9870667,11.1690647 L32.9870667,11.1690647 Z M20.3072944,9.61510791 L16.4738748,9.61510791 L16.4738748,13.4028777 L20.3072944,13.4028777 L20.3072944,9.61510791 Z M20.3072944,4.85611511 L16.4738748,4.85611511 L16.4738748,8.64388489 L20.3072944,8.64388489 L20.3072944,4.85611511 Z M20.3072944,0 L16.4738748,0 L16.4738748,3.78776978 L20.3072944,3.78776978 L20.3072944,0 Z M25.0253492,9.61510791 L21.1919296,9.61510791 L21.1919296,13.4028777 L25.0253492,13.4028777 L25.0253492,9.61510791 Z M10.7728919,9.61510791 L6.93947232,9.61510791 L6.93947232,13.4028777 L10.7728919,13.4028777 L10.7728919,9.61510791 L10.7728919,9.61510791 Z M15.5892395,9.61510791 L11.75582,9.61510791 L11.75582,13.4028777 L15.5892395,13.4028777 L15.5892395,9.61510791 Z M6.05483704,9.61510791 L2.22141749,9.61510791 L2.22141749,13.4028777 L6.05483704,13.4028777 L6.05483704,9.61510791 L6.05483704,9.61510791 Z M15.5892395,4.85611511 L11.75582,4.85611511 L11.75582,8.64388489 L15.5892395,8.64388489 L15.5892395,4.85611511 Z M10.7728919,4.85611511 L6.93947232,4.85611511 L6.93947232,8.64388489 L10.7728919,8.64388489 L10.7728919,4.85611511 L10.7728919,4.85611511 Z" id="SVGID_1_"></path>
            <path d="M28.1240106,35.928984 C28.9762533,35.1918581 29.828496,34.5038738 30.6807388,33.7667479 C30.9815303,33.5210392 31.2823219,33.2753306 31.5831135,32.9804802 C31.3324538,32.6856298 30.9815303,32.4890629 30.6306069,32.3416377 C29.9788918,32.095929 29.3271768,32.1942125 28.6754617,32.5382046 C27.8733509,32.9804802 27.5224274,33.7176061 27.5725594,34.6021573 C27.5725594,34.9461494 27.6728232,35.2901415 27.8733509,35.5849919 C28.0237467,35.7324171 28.0738786,35.8307006 28.1240106,35.928984 L28.1240106,35.928984 Z M29.1266491,36.6169683 C29.5277045,36.7643934 30.0290237,36.7643934 30.4802111,36.66611 C30.6807388,36.5678265 31.2823219,36.3221179 31.4828496,36.3712596 L31.5831135,36.3712596 C31.7335092,36.4204013 31.8337731,36.5186848 31.883905,36.66611 C32.0343008,36.9609604 31.9841689,37.2558108 31.6833773,37.4032359 L31.5831135,37.4523777 C30.4802111,38.0912202 29.3271768,37.9929367 28.2242744,37.4032359 C27.7229551,37.1083856 27.3218997,36.7152517 27.0211082,36.2238344 L26.9709763,36.1255509 C26.2691293,34.9461494 26.3693931,33.6684644 27.171504,32.5382046 C27.4221636,32.1450708 27.823219,31.8502204 28.2242744,31.6045117 L28.3746702,31.5062283 C29.4274406,30.9165275 30.530343,30.9656692 31.5831135,31.4570865 C32.1345646,31.7519369 32.6358839,32.1450708 32.9366755,32.6856298 L32.9868074,32.7839133 C33.237467,33.1770471 32.9366755,33.5210392 32.585752,33.7667479 L31.5329815,34.651299 C30.6306069,35.3392833 29.878628,35.9781258 29.1266491,36.6169683 L29.1266491,36.6169683 Z M37.298153,31.2113779 L37.3984169,31.2113779 C37.7493404,31.2113779 38,31.4570865 38,31.8010786 C38,32.292496 37.5488127,32.3907794 37.1477573,32.3907794 C36.646438,32.3907794 36.1451187,32.6856298 35.7941953,33.0296219 C35.3430079,33.4718975 35.1424802,34.0124565 35.1424802,34.6021573 L35.1424802,37.3540942 C35.1424802,37.6489446 34.9419525,37.943795 34.591029,37.943795 L34.4907652,37.943795 C34.1398417,37.943795 33.939314,37.6980863 33.939314,37.3540942 L33.939314,34.4547321 C33.939314,33.3244723 34.4907652,32.4399211 35.3931398,31.8010786 C36.0448549,31.4079448 36.646438,31.2113779 37.298153,31.2113779 L37.298153,31.2113779 Z M22.9604222,33.1279054 L24.3139842,31.8010786 C24.4643799,31.7027952 24.9155673,31.1622361 25.116095,31.1622361 L25.3166227,31.1622361 C25.5672823,31.2113779 25.76781,31.3588031 25.76781,31.6536535 L25.76781,31.7519369 C25.76781,31.9485038 25.5171504,32.1450708 25.4168865,32.292496 C25.1662269,32.5873463 24.8654354,32.833055 24.6147757,33.1279054 L23.2110818,34.5038738 L25.0158311,36.2729761 L25.5171504,36.7643934 L25.7176781,36.9609604 C25.76781,37.0592438 25.817942,37.1083856 25.817942,37.206669 L25.817942,37.3540942 C25.76781,37.5998029 25.5672823,37.7963698 25.3166227,37.7963698 L25.2163588,37.7963698 C25.0158311,37.7963698 24.8153034,37.5998029 24.6649077,37.4523777 C24.414248,37.206669 24.1134565,36.9609604 23.8627968,36.66611 L22.9604222,35.8307006 L22.9604222,37.206669 C22.9604222,37.5015194 22.7598945,37.7963698 22.408971,37.7963698 L22.3087071,37.7963698 C21.9577836,37.7963698 21.7572559,37.5506611 21.7572559,37.206669 L21.7572559,29.6388425 C21.7572559,29.3439921 21.9577836,29.0982835 22.3087071,29.0982835 L22.408971,29.0982835 C22.7598945,29.0982835 22.9604222,29.3439921 22.9604222,29.6388425 L22.9604222,33.1279054 L22.9604222,33.1279054 Z M19.2506596,32.3907794 C19.1002639,32.292496 18.7493404,32.292496 18.5488127,32.292496 C17.5963061,32.2433542 16.8944591,32.7839133 16.4934037,33.6193227 C16.3430079,33.9141731 16.292876,34.2090235 16.292876,34.5530156 C16.292876,35.5358502 16.7941953,36.2238344 17.6965699,36.6169683 C17.9973615,36.7643934 18.4485488,36.8135352 18.7994723,36.8135352 C19.1002639,36.8135352 19.5514512,36.6169683 19.8021108,36.5186848 L20.0527704,36.5186848 C20.3034301,36.5678265 20.5039578,36.7152517 20.5039578,37.0101021 L20.5039578,37.1083856 C20.5039578,37.7963698 19.2005277,37.943795 18.7493404,37.9929367 C17.0448549,38.0912202 15.7414248,37.1575273 15.2401055,35.5849919 C15.1398417,35.2901415 15.1398417,35.0444329 15.1398417,34.7495825 L15.1398417,34.5038738 C15.1398417,33.2753306 15.7414248,32.292496 16.8443272,31.7027952 C17.3456464,31.4079448 17.8970976,31.2605196 18.4986807,31.2605196 L18.7493404,31.2605196 C19.3509235,31.2605196 19.9525066,31.4079448 20.4538259,31.7519369 L20.5039578,31.8010786 L20.5540897,31.8502204 C20.6042216,31.9485038 20.6543536,32.0467873 20.6543536,32.1450708 L20.6543536,32.2433542 C20.6543536,32.5382046 20.4538259,32.6856298 20.1530343,32.7347715 L20.1029024,32.7347715 C19.7519789,32.6364881 19.3509235,32.4399211 19.2506596,32.3907794 Z M8.72295515,34.5038738 C8.72295515,35.3392833 9.17414248,35.9781258 9.87598945,36.4204013 C10.2269129,36.6169683 10.6279683,36.7152517 11.0290237,36.7152517 C11.8812665,36.7152517 12.5329815,36.2729761 12.9841689,35.5849919 C13.1846966,35.2409998 13.2849604,34.847866 13.2849604,34.4547321 C13.2849604,33.6684644 12.883905,33.0296219 12.23219,32.5873463 C11.8812665,32.3416377 11.4300792,32.2433542 11.0290237,32.2433542 C10.0765172,32.2433542 9.37467018,32.7347715 8.97361478,33.570181 C8.72295515,33.9141731 8.72295515,34.2090235 8.72295515,34.5038738 L8.72295515,34.5038738 Z M10.828496,31.1622361 L10.9788918,31.1622361 C12.3324538,31.1622361 13.3350923,31.8010786 13.9868074,32.9313385 C14.237467,33.373614 14.3878628,33.8650313 14.3878628,34.4055904 L14.3878628,34.651299 C14.3878628,35.8798423 13.7862797,36.8626769 12.6833773,37.4523777 C12.182058,37.7472281 11.6306069,37.8946533 11.0290237,37.8946533 L10.7783641,37.8946533 C9.52506596,37.8946533 8.52242744,37.3049525 7.92084433,36.2238344 C7.62005277,35.7324171 7.46965699,35.1918581 7.46965699,34.6021573 L7.46965699,34.3564486 C7.46965699,33.1279054 8.07124011,32.1450708 9.17414248,31.55537 C9.72559367,31.3096613 10.2269129,31.1622361 10.828496,31.1622361 L10.828496,31.1622361 Z M1.10290237,34.5038738 C1.10290237,35.388425 1.55408971,36.0764092 2.35620053,36.4695431 C2.65699208,36.6169683 3.00791557,36.7152517 3.40897098,36.7152517 C4.31134565,36.7152517 4.96306069,36.3221179 5.41424802,35.5849919 C5.61477573,35.2409998 5.71503958,34.847866 5.71503958,34.4547321 C5.71503958,33.6684644 5.36411609,33.0787636 4.71240106,32.6364881 C4.31134565,32.3907794 3.91029024,32.2433542 3.40897098,32.2433542 C2.45646438,32.2433542 1.75461741,32.7347715 1.35356201,33.570181 C1.20316623,33.9141731 1.10290237,34.2090235 1.10290237,34.5038738 L1.10290237,34.5038738 Z M5.71503958,31.9976456 L5.71503958,29.5897008 C5.71503958,29.2948504 5.91556728,29 6.26649077,29 L6.36675462,29 C6.7176781,29 6.9182058,29.2457087 6.9182058,29.5897008 L6.9182058,34.651299 C6.9182058,35.8798423 6.31662269,36.8626769 5.21372032,37.4523777 C4.71240106,37.7472281 4.16094987,37.8946533 3.55936675,37.8946533 L3.30870712,37.8946533 C2.05540897,37.8946533 1.05277045,37.3049525 0.451187335,36.2238344 C0.150395778,35.7324171 0,35.1918581 0,34.6021573 L0,34.3564486 C0,33.1279054 0.601583113,32.1450708 1.70448549,31.55537 C2.20580475,31.2605196 2.75725594,31.1130944 3.35883905,31.1130944 L3.60949868,31.1130944 C4.36147757,31.1622361 5.11345646,31.4570865 5.71503958,31.9976456 L5.71503958,31.9976456 Z" id="docker_2_"></path>
        </g>
    </g>
</svg>