<?xml version="1.0" encoding="UTF-8"?>
<svg width="38px" height="38px" viewBox="0 0 38 38" version="1.1" xmlns="http://www.w3.org/2000/svg" xmlns:xlink="http://www.w3.org/1999/xlink">
    <!-- Generator: Sketch 57.1 (83088) - https://sketch.com -->
    <title>graphql</title>
    <desc>Created with Sketch.</desc>
    <g id="graphql" stroke="none" stroke-width="1" fill="none" fill-rule="evenodd">
        <g id="logo" transform="translate(2.000000, 0.000000)" fill="#B7C3CE" fill-rule="nonzero">
            <polygon id="Path" points="3.14740816 28.9517347 1.75381633 28.1471429 17.2785612 1.25826531 18.6721531 2.06285714"></polygon>
            <polygon id="Path" points="1.43469388 25.9989796 32.4841837 25.9989796 32.4841837 27.6081633 1.43469388 27.6081633"></polygon>
            <path d="M17.5796531,35.8698673 L2.04909184,26.9030306 L2.85368367,25.5094388 L18.3842449,34.4762755 L17.5796531,35.8698673 Z M31.0710102,12.4999643 L15.540449,3.53312755 L16.3450408,2.13953571 L31.875602,11.1063724 L31.0710102,12.4999643 Z" id="Shape"></path>
            <polygon id="Path" points="2.85794898 12.4937602 2.05335714 11.1002653 17.5839184 2.13342857 18.3885102 3.52702041"></polygon>
            <path d="M30.7846531,28.9520255 L15.2599082,2.06314796 L16.6535,1.25855612 L32.1782449,28.1474337 L30.7846531,28.9520255 Z M2.66581633,10.0331633 L4.275,10.0331633 L4.275,27.9668367 L2.66581633,27.9668367 L2.66581633,10.0331633 Z M29.6535714,10.0331633 L31.2627551,10.0331633 L31.2627551,27.9668367 L29.6535714,27.9668367 L29.6535714,10.0331633 Z" id="Shape"></path>
            <polygon id="Path" points="17.3057041 35.1887755 16.602898 33.9714184 30.1103469 26.1726939 30.8131531 27.3899541"></polygon>
            <path d="M33.3954082,28.4903061 C32.4647959,30.1091837 30.3903061,30.6617347 28.7714286,29.7311224 C27.152551,28.8005102 26.6,26.7260204 27.5306122,25.1071429 C28.4612245,23.4882653 30.5357143,22.9357143 32.1545918,23.8663265 C33.7831633,24.8066327 34.3357143,26.8714286 33.3954082,28.4903061 M6.38826531,12.8928571 C5.45765306,14.5117347 3.38316327,15.0642857 1.76428571,14.1336735 C0.145408163,13.2030612 -0.407142857,11.1285714 0.523469388,9.50969388 C1.45408163,7.89081633 3.52857143,7.33826531 5.14744898,8.26887755 C6.76632653,9.20918367 7.31887755,11.2739796 6.38826531,12.8928571 M0.533163265,28.4903061 C-0.39744898,26.8714286 0.155102041,24.8066327 1.77397959,23.8663265 C3.39285714,22.9357143 5.45765306,23.4882653 6.39795918,25.1071429 C7.32857143,26.7260204 6.77602041,28.7908163 5.15714286,29.7311224 C3.52857143,30.6617347 1.46377551,30.1091837 0.533163265,28.4903061 M27.5403061,12.8928571 C26.6096939,11.2739796 27.1622449,9.20918367 28.7811224,8.26887755 C30.4,7.33826531 32.4647959,7.89081633 33.405102,9.50969388 C34.3357143,11.1285714 33.7831633,13.1933673 32.1642857,14.1336735 C30.5454082,15.0642857 28.4709184,14.5117347 27.5403061,12.8928571 M16.9642857,37.9806122 C15.0933673,37.9806122 13.5811224,36.4683673 13.5811224,34.597449 C13.5811224,32.7265306 15.0933673,31.2142857 16.9642857,31.2142857 C18.8352041,31.2142857 20.347449,32.7265306 20.347449,34.597449 C20.347449,36.4586735 18.8352041,37.9806122 16.9642857,37.9806122 M16.9642857,6.78571429 C15.0933673,6.78571429 13.5811224,5.27346939 13.5811224,3.40255102 C13.5811224,1.53163265 15.0933673,0.0193877551 16.9642857,0.0193877551 C18.8352041,0.0193877551 20.347449,1.53163265 20.347449,3.40255102 C20.347449,5.27346939 18.8352041,6.78571429 16.9642857,6.78571429" id="Shape"></path>
        </g>
    </g>
</svg>