<?xml version="1.0" encoding="UTF-8"?>
<svg width="38px" height="38px" viewBox="0 0 38 38" version="1.1" xmlns="http://www.w3.org/2000/svg" xmlns:xlink="http://www.w3.org/1999/xlink">
    <!-- Generator: Sketch 57.1 (83088) - https://sketch.com -->
    <title>hasura</title>
    <desc>Created with Sketch.</desc>
    <g id="hasura" stroke="none" stroke-width="1" fill="none" fill-rule="evenodd">
        <g transform="translate(3.000000, 0.000000)" fill="#B7C3CE" fill-rule="nonzero">
            <path d="M31.7641026,12.5692308 C32.8358974,9.98717949 32.8358974,4.72564103 31.4230769,0.682051282 C31.0333333,-0.0487179487 29.9615385,0.194871795 29.9128205,0.974358974 L29.9128205,1.26666667 C29.6692308,5.11538462 28.2564103,7.21025641 26.1615385,8.23333333 C25.8205128,8.37948718 25.2846154,8.37948718 24.9435897,8.13589744 C22.4589744,6.57692308 19.5358974,5.65128205 16.3692308,5.65128205 C13.2025641,5.65128205 10.2794872,6.57692308 7.79487179,8.13589744 C7.45384615,8.33076923 7.06410256,8.37948718 6.72307692,8.23333333 C4.57948718,7.45384615 3.11794872,5.11538462 2.87435897,1.21794872 L2.87435897,0.925641026 C2.82564103,0.146153846 1.70512821,-0.0974358974 1.36410256,0.633333333 C-0.0487179487,4.72564103 8.8817842e-16,9.98717949 1.02307692,12.5692308 C1.55897436,13.8358974 1.55897436,15.2974359 1.12051282,16.6128205 C0.535897436,18.2692308 0.243589744,20.1205128 0.292307692,21.9717949 C0.487179487,30.4487179 7.6974359,37.6589744 16.174359,37.8051282 C25.1384615,37.9025641 32.4461538,30.6923077 32.4461538,21.7282051 C32.4461538,19.925641 32.1538462,18.2205128 31.6179487,16.6128205 C31.1794872,15.2974359 31.2282051,13.8358974 31.7641026,12.5692308 L31.7641026,12.5692308 Z M16.174359,33.9564103 C9.64615385,33.8102564 4.28717949,28.5 4.18974359,21.9717949 C4.04358974,15.0051282 9.69487179,9.35384615 16.6128205,9.5 C23.1410256,9.5974359 28.5,14.9564103 28.5974359,21.4846154 C28.7435897,28.4025641 23.0923077,34.0538462 16.174359,33.9564103 Z" id="Shape"></path>
            <path d="M18.2692308,20.4128205 L15.3948718,15.9794872 C14.9564103,15.2487179 13.9820513,15.0538462 13.2512821,15.4923077 C12.8128205,15.7846154 12.5205128,16.2717949 12.5205128,16.8076923 C12.5205128,17.1 12.6179487,17.3923077 12.7641026,17.6358974 L14.7128205,20.6564103 C14.8589744,20.9 14.8102564,21.1923077 14.6641026,21.3871795 L11.6435897,24.7 C11.0589744,25.3333333 11.1076923,26.3076923 11.7410256,26.8923077 C12.0333333,27.1358974 12.4230769,27.2820513 12.8128205,27.2820513 C13.2512821,27.2820513 13.6410256,27.0871795 13.9333333,26.7948718 L16.174359,24.1641026 C16.3692308,23.9692308 16.6615385,23.9692308 16.8076923,24.2128205 L18.4153846,26.5025641 C18.5128205,26.6974359 18.6589744,26.8435897 18.8538462,26.9410256 C19.3897436,27.3307692 20.0717949,27.3307692 20.6076923,26.9897436 C21.0461538,26.6974359 21.3384615,26.2102564 21.3384615,25.674359 C21.3384615,25.3820513 21.2410256,25.0897436 21.0948718,24.8461538 L18.2692308,20.4128205 Z" id="Path"></path>
        </g>
    </g>
</svg>