<?xml version="1.0" encoding="UTF-8"?>
<svg width="38px" height="38px" viewBox="0 0 38 38" version="1.1" xmlns="http://www.w3.org/2000/svg" xmlns:xlink="http://www.w3.org/1999/xlink">
    <!-- Generator: Sketch 57.1 (83088) - https://sketch.com -->
    <title>java</title>
    <desc>Created with Sketch.</desc>
    <g id="java" stroke="none" stroke-width="1" fill="none" fill-rule="evenodd">
        <g transform="translate(9.000000, 0.000000)" fill="#B7C3CE" fill-rule="nonzero">
            <path d="M7.22482425,20.1135039 C7.22482425,20.1135039 6.26676558,20.6709842 7.90736821,20.859308 C9.8954856,21.0863371 10.9109778,21.0536666 13.1011532,20.6393541 C13.1011532,20.6393541 13.677778,21.0003949 14.4826805,21.312742 C9.57148531,23.4171832 3.36782657,21.1910077 7.22482425,20.1135039 Z M6.62447689,17.3673049 C6.62447689,17.3673049 5.54967823,18.1628432 7.19173751,18.3326468 C9.31553132,18.5519765 10.9919259,18.5698724 13.8946106,18.0113517 C13.8946106,18.0113517 14.2953971,18.4181729 14.9261259,18.6404159 C8.98903392,20.3769492 2.37668117,18.7771327 6.62447689,17.3673049 Z" id="Shape"></path>
            <path d="M11.6832097,12.7083181 C12.8938929,14.1019147 11.3658684,15.3552568 11.3658684,15.3552568 C11.3658684,15.3552568 14.4385648,13.7693826 13.0272803,11.7827219 C11.7096375,9.93090516 10.6989314,9.01092746 16.1698958,5.83834658 C16.1696878,5.83813849 7.58191127,7.98232538 11.6832097,12.7083181 Z" id="Path"></path>
            <path d="M18.1784063,22.1449046 C18.1784063,22.1449046 18.8875861,22.729645 17.3972264,23.1818303 C14.5632123,24.0402126 5.59962048,24.2990799 3.10979165,23.2159575 C2.21540935,22.8264081 3.89346866,22.2864076 4.42139977,22.1723728 C4.97201298,22.0533438 5.28623291,22.0749854 5.28623291,22.0749854 C4.29092566,21.3741293 -1.14716014,23.4515184 2.52442697,24.0474959 C12.5361816,25.6708268 20.7749867,23.3166744 18.1784063,22.1449046 Z M7.68574951,14.5216376 C7.68574951,14.5216376 3.12685525,15.60476 6.07157466,15.9984713 C7.31534456,16.1647373 9.79289591,16.1264483 12.1025165,15.932714 C13.9895008,15.7743555 15.8835603,15.4355806 15.8835603,15.4355806 C15.8835603,15.4355806 15.2187042,15.7208757 14.7369697,16.0492459 C10.1066997,17.2672123 1.1632928,16.6999517 3.73823152,15.4549332 C5.91529706,14.4017762 7.68574951,14.5216376 7.68574951,14.5216376 L7.68574951,14.5216376 Z M15.8646239,19.0928093 C20.5710559,16.6477204 18.3950308,14.2975218 16.8757462,14.6142388 C16.5043008,14.6918574 16.3376185,14.7588632 16.3376185,14.7588632 C16.3376185,14.7588632 16.4762083,14.5420307 16.7396536,14.4488052 C19.7447199,13.3927349 22.0553809,17.5643687 15.7707737,19.2164164 C15.770566,19.2164164 15.8429823,19.1510753 15.8646239,19.0928093 Z" id="Shape"></path>
            <path d="M13.0272803,0.714064528 C13.0272803,0.714064528 15.6332248,3.3216738 10.5549313,7.33016295 C6.48234959,10.5468595 9.62642177,12.380364 10.5536827,14.4760653 C8.17601585,12.3312541 6.43199116,10.4428131 7.60188817,8.68567861 C9.31948508,6.10636994 14.0787726,4.85552489 13.0272803,0.714064528 Z" id="Path"></path>
            <path d="M8.14875571,25.7205609 C12.6656153,26.0093936 19.6032168,25.5601215 19.7678182,23.4223855 C19.7678182,23.4223855 19.4519335,24.2326983 16.0344275,24.8754966 C12.1786784,25.6013238 7.42230419,25.5168382 4.6022323,25.0513349 C4.6022323,25.0513349 5.18010565,25.5295319 8.14875571,25.7205609 Z" id="Path"></path>
            <path d="M19.5591012,29.5540441 L19.42176,29.5540441 L19.42176,29.4770499 L19.7923731,29.4770499 L19.7923731,29.5540441 L19.6550319,29.5540441 L19.6550319,29.9385994 L19.5591012,29.9385994 L19.5591012,29.5540441 Z M20.2986626,29.5731887 L20.2969978,29.5731887 L20.160489,29.9383913 L20.0978531,29.9383913 L19.9621767,29.5731887 L19.960512,29.5731887 L19.960512,29.9383913 L19.8693674,29.9383913 L19.8693674,29.4768418 L20.003171,29.4768418 L20.1288589,29.8033392 L20.2545469,29.4768418 L20.3871019,29.4768418 L20.3871019,29.9383913 L20.2988707,29.9383913 L20.2988707,29.5731887 L20.2986626,29.5731887 L20.2986626,29.5731887 Z M7.40857007,33.887574 C6.98260437,34.2567304 6.53229183,34.4644069 6.12796777,34.4644069 C5.55196725,34.4644069 5.23941206,34.1183488 5.23941206,33.5646142 C5.23941206,32.9650992 5.57402508,32.5264399 6.91330952,32.5264399 L7.40836198,32.5264399 L7.40836198,33.887574 L7.40857007,33.887574 L7.40857007,33.887574 Z M8.58429367,35.2139567 L8.58429367,31.1078721 C8.58429367,30.0584608 7.98581915,29.3659284 6.54311265,29.3659284 C5.70137779,29.3659284 4.96348118,29.5738129 4.36355,29.8387149 L4.53626692,30.5659988 C5.00884538,30.3924495 5.61980547,30.2315939 6.21952855,30.2315939 C7.05065068,30.2315939 7.40836198,30.5659988 7.40836198,31.2583231 L7.40836198,31.7775143 L6.99300901,31.7775143 C4.9740939,31.7775143 4.06306418,32.5607752 4.06306418,33.7383716 C4.06306418,34.7530315 4.66341154,35.3298644 5.79356285,35.3298644 C6.52001436,35.3298644 7.06272005,35.0300028 7.56942571,34.5911354 L7.66161076,35.2139567 L8.58429367,35.2139567 L8.58429367,35.2139567 Z M12.5082972,35.2139567 L11.0422843,35.2139567 L9.27703418,29.4703909 L10.5576365,29.4703909 L11.6532444,32.9998507 L11.897129,34.060291 C12.4498232,32.5264399 12.8420778,30.9692824 13.0383092,29.4703909 L14.2835358,29.4703909 C13.9501713,31.3615371 13.3496159,33.4378858 12.5082972,35.2139567 L12.5082972,35.2139567 Z M18.1344988,33.887574 C17.7072845,34.2567304 17.256972,34.4644069 16.8534803,34.4644069 C16.2774798,34.4644069 15.9653408,34.1183488 15.9653408,33.5646142 C15.9653408,32.9650992 16.3001619,32.5264399 17.6386139,32.5264399 L18.1344988,32.5264399 L18.1344988,33.887574 L18.1344988,33.887574 Z M19.3106386,35.2139567 L19.3106386,31.1078721 C19.3106386,30.0584608 18.7102912,29.3659284 17.2690413,29.3659284 C16.4264741,29.3659284 15.6887856,29.5738129 15.0888544,29.8387149 L15.2615713,30.5659988 C15.7341498,30.3924495 16.3463584,30.2315939 16.9462896,30.2315939 C17.7761632,30.2315939 18.1342907,30.5659988 18.1342907,31.2583231 L18.1342907,31.7775143 L17.7189377,31.7775143 C15.6998145,31.7775143 14.7894091,32.5607752 14.7894091,33.7383716 C14.7894091,34.7530315 15.3885079,35.3298644 16.5188673,35.3298644 C17.2459431,35.3298644 17.7878164,35.0300028 18.2957706,34.5911354 L18.3883718,35.2139567 L19.3106386,35.2139567 L19.3106386,35.2139567 Z M2.77393008,36.1899114 C2.43890088,36.6795534 1.89702756,37.0672301 1.30458772,37.2859355 L0.724009168,36.602143 C1.17536217,36.3705358 1.56199836,35.9965933 1.74199852,35.6486623 C1.89702756,35.3386042 1.96174438,34.9398987 1.96174438,33.9855857 L1.96174438,27.4275451 L3.21134088,27.4275451 L3.21134088,33.8950654 C3.21134088,35.1715058 3.10937547,35.6873676 2.77393008,36.1899114 L2.77393008,36.1899114 Z" id="Shape"></path>
        </g>
    </g>
</svg>