<?xml version="1.0" encoding="UTF-8"?>
<svg width="38px" height="38px" viewBox="0 0 38 38" version="1.1" xmlns="http://www.w3.org/2000/svg" xmlns:xlink="http://www.w3.org/1999/xlink">
    <!-- Generator: Sketch 57.1 (83088) - https://sketch.com -->
    <title>js</title>
    <desc>Created with Sketch.</desc>
    <g id="js" stroke="none" stroke-width="1" fill="none" fill-rule="evenodd">
        <g id="javascript" fill="#B7C3CE">
            <g id="Shape">
                <path d="M38,0 L38,38 L0,38 L0,0 L38,0 Z M28.9194844,17.2414609 C25.7308984,17.2414609 23.6903281,19.2821797 23.6903281,21.9605859 C23.6903281,24.8684766 25.3992891,26.2459766 27.9757188,27.3424844 L27.9757188,27.3424844 L28.8682734,27.7254531 C30.5007891,28.4394375 31.4700859,28.8731719 31.4700859,30.0974844 C31.4700859,31.1178438 30.5266172,31.8576563 29.0468438,31.8576563 C27.2869688,31.8576563 26.2921406,30.9394219 25.5266484,29.6894297 L25.5266484,29.6894297 L22.6189063,31.3730078 C23.6646484,33.4392578 25.8073438,35.0207109 29.1232891,35.0207109 C32.5158281,35.0207109 35.0410469,33.2608359 35.0410469,30.0465703 C35.0410469,27.0623828 33.3320859,25.7360938 30.2965391,24.4350391 L30.2965391,24.4350391 L29.4038359,24.0525156 C27.8734453,23.3892969 27.2102266,22.9554141 27.2102266,21.8841406 C27.2102266,21.0169688 27.8734453,20.35375 28.9193359,20.35375 C29.9396953,20.35375 30.6026172,20.7873359 31.2149219,21.8841406 L31.2149219,21.8841406 L33.9954531,20.0984375 C32.8222031,18.0323359 31.1896875,17.2414609 28.9194844,17.2414609 Z M20.6794219,17.4457109 L17.1084609,17.4457109 L17.1084609,29.5876016 C17.1084609,31.3730078 16.3685,31.8319766 15.1951016,31.8319766 C13.9709375,31.8319766 13.4606094,30.9903359 12.8995156,29.9956563 L12.8995156,29.9956563 L9.99147656,31.7552344 C10.8332656,33.5407891 12.4914609,35.0202656 15.3481406,35.0202656 C18.5113438,35.0202656 20.6794219,33.3366875 20.6794219,29.6380703 L20.6794219,29.6380703 L20.6794219,17.4457109 Z" id="Rectangle-2"></path>
            </g>
        </g>
    </g>
</svg>