<?xml version="1.0" encoding="UTF-8"?>
<svg width="56px" height="38px" viewBox="0 0 56 38" version="1.1" xmlns="http://www.w3.org/2000/svg" xmlns:xlink="http://www.w3.org/1999/xlink">
    <!-- Generator: Sketch 57.1 (83088) - https://sketch.com -->
    <title>mysql</title>
    <desc>Created with Sketch.</desc>
    <g id="mysql" stroke="none" stroke-width="1" fill="none" fill-rule="evenodd">
        <g fill="#B7C3CE" fill-rule="nonzero">
            <path d="M37.9910424,3.86046956 C37.7304814,3.86046956 37.5467104,3.89219131 37.3612986,3.93812174 L37.3612986,3.9691826 L37.3911613,3.9691826 C37.5152068,4.2160174 37.7304814,4.38751304 37.8827487,4.6036174 C38.0064661,4.85111304 38.1141033,5.09794782 38.2368361,5.34511304 C38.2519316,5.33024348 38.2666989,5.31405218 38.2666989,5.31405218 C38.4832861,5.16006956 38.5905953,4.91257391 38.5905953,4.54083478 C38.4977252,4.43212174 38.4832861,4.32473044 38.4058398,4.2160174 C38.3139543,4.06170435 38.1141033,3.9843826 37.9910424,3.86046956" id="Fill-3"></path>
            <path d="M13.5557358,34.3876869 L11.4279303,34.3876869 C11.3531092,30.7717391 11.1457106,27.3715652 10.8067187,24.1865044 L10.7880134,24.1865044 L7.54872158,34.3876869 L5.9285834,34.3876869 L2.70898129,24.1865044 L2.68994786,24.1865044 C2.45137375,27.2453391 2.30107532,30.6455131 2.23839629,34.3876869 L0.298627859,34.3876869 C0.423985926,29.8366087 0.73770926,25.5703652 1.23979786,21.5879652 L3.8765834,21.5879652 L6.94621526,30.9928 L6.96524868,30.9928 L10.0535858,21.5879652 L12.576499,21.5879652 C13.1291246,26.2520522 13.4553181,30.5196174 13.5557358,34.3876869" id="Fill-4"></path>
            <path d="M22.7830085,24.9441913 C21.9166595,29.6776696 20.7739978,33.1174956 19.3553514,35.2633391 C18.2501001,36.9168348 17.0395087,37.7435826 15.7209519,37.7435826 C15.3694899,37.7435826 14.9363153,37.6368522 14.4217566,37.4250435 L14.4217566,36.2840522 C14.6731291,36.3210609 14.967819,36.3408869 15.3071389,36.3408869 C15.9221154,36.3408869 16.4176408,36.1697218 16.7950277,35.8280522 C17.2465792,35.4117044 17.472355,34.9438087 17.472355,34.4253565 C17.472355,34.0711304 17.2961318,33.3445044 16.945326,32.2451478 L14.6101219,24.9441913 L16.7005169,24.9441913 L18.3761145,30.404626 C18.752845,31.6444174 18.9097067,32.509826 18.8470277,33.0031652 C19.7635855,30.5381218 20.4038305,27.8516869 20.7680908,24.9441913 L22.7830085,24.9441913" id="Fill-5"></path>
            <polyline id="Fill-6" points="51.1047434 34.3876869 45.0603186 34.3876869 45.0603186 21.5879652 47.0942696 21.5879652 47.0942696 32.8131652 51.1047434 32.8131652 51.1047434 34.3876869"></polyline>
            <path d="M35.9085232,31.8271478 C35.3936364,30.9928 35.1357006,29.6538782 35.1357006,27.8077391 C35.1357006,24.5846782 36.1090305,22.9721565 38.0547059,22.9721565 C39.0720096,22.9721565 39.8185792,23.357774 40.2960556,24.1283478 C40.8102863,24.963026 41.068222,26.2903826 41.068222,28.1107478 C41.068222,31.3595826 40.094892,32.9846609 38.1492167,32.9846609 C37.1322411,32.9846609 36.3853433,32.599374 35.9085232,31.8271478 M43.4785754,34.6963131 L41.1420586,33.5361565 C41.3501136,33.3643304 41.5476674,33.1789565 41.7265159,32.9645044 C42.7185511,31.7901391 43.2150609,30.0520522 43.2150609,27.7509044 C43.2150609,23.5163826 41.5640755,21.3979652 38.2624327,21.3979652 C36.6429509,21.3979652 35.380838,21.9349218 34.4770785,23.0104869 C33.4847152,24.186174 32.9891899,25.9176522 32.9891899,28.2059131 C32.9891899,30.4558435 33.4282712,32.1063652 34.3070904,33.1548348 C35.1107603,34.1025218 36.3223362,34.577026 37.9421461,34.577026 C38.5469496,34.577026 39.1018723,34.5020174 39.6062582,34.352 L42.6489807,36.135026 L43.4785754,34.6963131" id="Fill-7"></path>
            <path d="M32.1028229,30.8398087 C32.1028229,31.9252869 31.7067309,32.8164696 30.9171719,33.5136869 C30.1269566,34.2079304 29.0653511,34.5558782 27.7359648,34.5558782 C26.4925572,34.5558782 25.2875445,34.1553913 24.1202706,33.3606956 L24.6663329,32.2613391 C25.6708383,32.7669044 26.5798484,33.0193565 27.3959885,33.0193565 C28.1615915,33.0193565 28.7608163,32.8478609 29.1943188,32.5088348 C29.626837,32.1674956 29.8860854,31.6913391 29.8860854,31.0873044 C29.8860854,30.3273044 29.3597128,29.6776696 28.3939306,29.1327826 C27.5023131,28.6401044 25.7203909,27.6114609 25.7203909,27.6114609 C24.7549368,26.9023478 24.2708971,26.1413565 24.2708971,24.8876869 C24.2708971,23.8507826 24.6318759,23.0128 25.3528488,22.3750609 C26.0754627,21.7363304 27.0077722,21.4168 28.1494496,21.4168 C29.3295218,21.4168 30.4026132,21.7340174 31.3690517,22.3658087 L30.8781206,23.464174 C30.0511512,23.1112696 29.2356674,22.9341565 28.4316693,22.9341565 C27.7792822,22.9341565 27.2765373,23.091774 26.9260598,23.4089913 C26.5736133,23.7235652 26.3557134,24.1283478 26.3557134,24.6216869 C26.3557134,25.3797044 26.8935718,26.0372696 27.8865914,26.5927304 C28.7893664,27.0857391 30.6149343,28.1342087 30.6149343,28.1342087 C31.607954,28.842 32.1028229,29.5967131 32.1028229,30.8398087" id="Fill-8"></path>
            <path d="M53.6571911,17.300574 C52.4278944,17.2695131 51.4758951,17.3930956 50.6774758,17.7334435 C50.4471057,17.8262956 50.0789074,17.8262956 50.0474038,18.1200522 C50.1711211,18.2436348 50.1858884,18.4445391 50.294182,18.615374 C50.477953,18.9246609 50.7998804,19.3413391 51.0922731,19.5587652 C51.4148568,19.8062609 51.7374406,20.0527652 52.0757761,20.2692 C52.6743445,20.6419304 53.3503592,20.857374 53.9331758,21.2287826 C54.2721676,21.4452174 54.6088623,21.7231131 54.9478542,21.9557391 C55.1162015,22.0796522 55.2228543,22.2808869 55.4387852,22.3572174 L55.4387852,22.310626 C55.3304916,22.1718435 55.3003007,21.9706087 55.1933197,21.8153044 C55.0400678,21.6616522 54.8861596,21.5215478 54.7322514,21.3675652 C54.2866067,20.7645218 53.7329966,20.2391304 53.1354127,19.8062609 C52.6434972,19.4649218 51.5677806,19.0009913 51.3689141,18.4306609 C51.3689141,18.4306609 51.3528342,18.4141391 51.3377387,18.3989391 C51.6757461,18.3675478 52.0757761,18.2436348 52.3980317,18.1497913 C52.9194818,18.0110087 53.3956456,18.0424 53.9331758,17.9036174 C54.1792976,17.8411652 54.4250913,17.7635131 54.6718695,17.6875131 L54.6718695,17.5474087 C54.3939158,17.2695131 54.1950494,16.897774 53.9033129,16.6350782 C53.1206454,15.9547131 52.2595471,15.2905391 51.3689141,14.7327652 C50.892094,14.4234782 50.2777739,14.2232348 49.7707628,13.9595478 C49.58732,13.8666956 49.280488,13.8207652 49.1725227,13.6654609 C48.8958816,13.3251131 48.7416453,12.877374 48.5424507,12.474574 C48.0974623,11.625026 47.666585,10.6819652 47.2832912,9.78351304 C47.0069784,9.1808 46.8379747,8.57808696 46.4999674,8.02097391 C44.9172397,5.39137391 43.1976683,3.79933913 40.5559603,2.23704348 C39.9875829,1.91156522 39.3118964,1.7727826 38.5905953,1.60260869 C38.2059888,1.5864174 37.8223668,1.55634782 37.4384168,1.54114782 C37.1922949,1.43243478 36.946173,1.13834782 36.7315548,0.999234782 C35.8556891,0.442782609 33.5989157,-0.763304348 32.9534202,0.829391304 C32.5386227,1.83523478 33.5677403,2.82455652 33.9211713,3.33507826 C34.1820604,3.69029565 34.520396,4.09309565 34.7038388,4.49457391 C34.8114761,4.7576 34.8423233,5.03648696 34.9502888,5.3143826 C35.1957544,5.99474782 35.4257963,6.75276522 35.7490363,7.3872 C35.9173836,7.7120174 36.1014828,8.05269565 36.3164292,8.34513044 C36.4404747,8.51629565 36.6547648,8.59262609 36.7010356,8.87184348 C36.4867455,9.1808 36.4700093,9.64473044 36.3472765,10.0316696 C35.7946509,11.7793391 36.0092691,13.9443478 36.7929212,15.2277565 C37.0380586,15.6143652 37.6225159,16.4652348 38.4058398,16.1397565 C39.0969499,15.8618609 38.9433699,14.9802609 39.1428927,14.207374 C39.1888354,14.0206782 39.1579882,13.8980869 39.2498736,13.7745044 L39.2498736,13.8058956 C39.4648201,14.2381044 39.6804229,14.6547826 39.8799457,15.088974 C40.3567658,15.846 41.185376,16.6350782 41.8771425,17.1604696 C42.2446844,17.4396869 42.536749,17.9184869 42.9974892,18.0889913 L42.9974892,18.0424 L42.9672983,18.0424 C42.8747565,17.9036174 42.7369282,17.8411652 42.6138673,17.7334435 C42.3375545,17.4548869 42.0310507,17.1145391 41.8151198,16.8055826 C41.1702805,15.9398435 40.6012468,14.9802609 40.0955484,13.9906087 C39.8490984,13.5101565 39.6344801,12.9847652 39.4346291,12.5056348 C39.3427437,12.3209218 39.3427437,12.0417044 39.1888354,11.9491826 C38.9578091,12.2892 38.6207862,12.5832869 38.4521106,12.9996348 C38.160046,13.6654609 38.1295269,14.4849391 38.0212334,15.3358087 C37.9601951,15.352 37.9910424,15.3358087 37.9601951,15.3665391 C37.4692641,15.2429565 37.3002604,14.7327652 37.1155049,14.3008869 C36.6547648,13.2015304 36.5773184,11.4386609 36.9773485,10.1704522 C37.0843294,9.84629565 37.5463822,8.8255826 37.3612986,8.51629565 C37.2684286,8.2212174 36.9615967,8.05269565 36.7929212,7.81973913 C36.5937265,7.5259826 36.3774675,7.15556522 36.2406237,6.83008696 C35.871769,5.96434782 35.6863573,5.00509565 35.2882962,4.13935652 C35.1038688,3.73655652 34.7806288,3.31888696 34.520396,2.94846956 C34.2280032,2.5308 33.9057476,2.23704348 33.6750494,1.74271304 C33.5989157,1.57220869 33.4912784,1.29365218 33.613683,1.10860869 C33.643874,0.984695652 33.7062248,0.938104348 33.8292858,0.906713044 C34.0278241,0.736869565 34.5968578,0.952973913 34.7960525,1.04582609 C35.364758,1.27713044 35.8409218,1.49488696 36.3164292,1.81904348 C36.5317038,1.9740174 36.7620739,2.26777391 37.0380586,2.34575652 L37.3612986,2.34575652 C37.8525578,2.45314782 38.4058398,2.37582609 38.8669081,2.5156 C39.6804229,2.77829565 40.4174758,3.16490435 41.078395,3.58257391 C43.0897028,4.86631304 44.7485642,6.69163478 45.869239,8.87184348 C46.0539945,9.22706087 46.1314409,9.55220869 46.3001164,9.92262609 C46.6227002,10.6819652 47.022402,11.4551826 47.3443294,12.1966782 C47.666585,12.9236348 47.9744014,13.6654609 48.4357979,14.2694956 C48.6655116,14.5936522 49.58732,14.763826 50.0021174,14.934 C50.3086212,15.0727826 50.7854412,15.1966956 51.0620822,15.3665391 C51.5841888,15.691026 52.1053107,16.0627652 52.5975545,16.418974 C52.8426919,16.6043478 53.6109202,16.990626 53.6571911,17.300574" id="Fill-9"></path>
            <path d="M52.5565342,34.3863652 L52.893557,34.3863652 L52.893557,33.0841218 L53.3346074,33.0841218 L53.3346074,32.8181218 L52.0984193,32.8181218 L52.0984193,33.0841218 L52.5565342,33.0841218 L52.5565342,34.3863652 Z M55.1211239,34.3863652 L55.4387852,34.3863652 L55.4387852,32.8181218 L54.9609807,32.8181218 L54.5721081,33.8870782 L54.1487786,32.8181218 L53.6883666,32.8181218 L53.6883666,34.3863652 L53.9889634,34.3863652 L53.9889634,33.1928348 L54.0060279,33.1928348 L54.4493753,34.3863652 L54.6784327,34.3863652 L55.1211239,33.1928348 L55.1211239,34.3863652 Z" id="Fill-10"></path>
        </g>
    </g>
</svg>