<?xml version="1.0" encoding="UTF-8"?>
<svg width="61px" height="38px" viewBox="0 0 61 38" version="1.1" xmlns="http://www.w3.org/2000/svg" xmlns:xlink="http://www.w3.org/1999/xlink">
    <!-- Generator: Sketch 57.1 (83088) - https://sketch.com -->
    <title>nodejs</title>
    <desc>Created with Sketch.</desc>
    <g id="nodejs" stroke="none" stroke-width="1" fill="none" fill-rule="evenodd">
        <g id="Group" fill-rule="nonzero">
            <path d="M30.2684591,37.8323221 C30.0685593,37.8323221 29.8700286,37.77916 29.6947739,37.6768614 L27.8687023,36.5808627 C27.5959622,36.4262347 27.7290461,36.3715458 27.8190011,36.3400372 C28.1826545,36.2109493 28.2564532,36.1818003 28.644615,35.9583255 C28.6854164,35.9347288 28.7388144,35.943057 28.7805743,35.9680418 L30.1834333,36.8119718 C30.2340928,36.8397327 30.3059746,36.8397327 30.3529374,36.8119718 L35.8228003,33.611145 C35.8734598,33.5819962 35.9063201,33.5223103 35.9063201,33.4612364 L35.9063201,27.0623589 C35.9063201,26.9985089 35.8734598,26.9415992 35.8217049,26.9096742 L30.3540327,23.7116235 C30.3033732,23.6810866 30.2362835,23.6810866 30.1856239,23.7116235 L24.719047,26.9096742 C24.6660598,26.9402112 24.6323781,26.999897 24.6323781,27.0609708 L24.6323781,33.4598484 C24.6323781,33.5209222 24.6652384,33.57922 24.7172671,33.608369 L26.2151469,34.485612 C27.0284382,34.8978608 27.5254495,34.4120457 27.5254495,33.9234547 L27.5254495,27.6078598 C27.5254495,27.5176369 27.5952776,27.4482349 27.684274,27.4482349 L28.3770778,27.4482349 C28.463336,27.4482349 28.5345332,27.5176369 28.5345332,27.6078598 L28.5345332,33.9262308 C28.5345332,35.0255607 27.9430485,35.6571202 26.9147965,35.6571202 C26.5985166,35.6571202 26.3493263,35.6571202 25.6537843,35.3101095 L24.2188866,34.4717316 C23.8642697,34.2635252 23.6452013,33.8748732 23.6452013,33.4598484 L23.6452013,27.0609708 C23.6452013,26.644558 23.8642697,26.255906 24.2188866,26.0504757 L29.6942263,22.8482609 C30.0406281,22.6497707 30.5006716,22.6497707 30.8443351,22.8482609 L36.3128288,26.0518637 C36.6660766,26.2586822 36.8865141,26.6459461 36.8865141,27.0623589 L36.8865141,33.4612364 C36.8865141,33.8762613 36.6660766,34.2635252 36.3128288,34.4717316 L30.8443351,37.6739465 C30.6690804,37.7766616 30.4705497,37.8294072 30.2679114,37.8294072" id="Path" fill="#9AA5AF"></path>
            <path d="M32.1154577,33.0969371 C29.8045694,33.0969371 29.3200496,32.0137379 29.3200496,31.1052222 C29.3200496,31.0188255 29.3882658,30.9499782 29.4730071,30.9499782 L30.1551687,30.9499782 C30.2305237,30.9499782 30.2939806,31.006001 30.3058788,31.0820031 C30.4089962,31.7918063 30.7157045,32.1498128 32.113078,32.1498128 C33.2262175,32.1498128 33.6995001,31.8930525 33.6995001,31.2903003 C33.6995001,30.9433634 33.5646543,30.6855231 31.8354542,30.5127296 C30.389166,30.3669352 29.4954815,30.0415974 29.4954815,28.860392 C29.4954815,27.772333 30.394454,27.1243575 31.900233,27.1243575 C33.5910947,27.1243575 34.4292543,27.7237349 34.5350158,29.0115863 C34.5389819,29.0561346 34.5231176,29.0993329 34.4940332,29.1317318 C34.4649488,29.1627806 34.4239662,29.1816799 34.3816616,29.1816799 L33.6955341,29.1816799 C33.6241451,29.1816799 33.5620102,29.1303818 33.547468,29.0601844 C33.3822157,28.3136626 32.9829662,28.0747217 31.897589,28.0747217 C30.682654,28.0747217 30.5411981,28.5067053 30.5411981,28.8306931 C30.5411981,29.2235283 30.7077724,29.3382739 32.3470753,29.5596656 C33.970514,29.7797072 34.7412507,30.0901956 34.7412507,31.2552016 C34.7412507,32.4296573 33.7814653,33.1032819 32.1077899,33.1032819 L32.1154577,33.0969371 Z M38.5407317,26.503381 L38.7178822,26.503381 C38.8633043,26.503381 38.8910666,26.3994349 38.8910666,26.3386872 C38.8910666,26.1793932 38.7839831,26.1793932 38.7244923,26.1793932 L38.5420537,26.1793932 L38.5407317,26.503381 Z M38.3252427,25.9931002 L38.7178822,25.9931002 C38.852728,25.9931002 39.1171318,25.9931002 39.1171318,26.3008886 C39.1171318,26.5155305 38.9822859,26.5600788 38.9016428,26.5870778 C39.0589629,26.5978774 39.0695391,26.7031734 39.0906914,26.8516678 C39.1012676,26.9448143 39.1184538,27.1054582 39.1501822,27.1594562 L38.9082528,27.1594562 C38.9016428,27.1054582 38.8646262,26.8084694 38.8646262,26.7922701 C38.848762,26.7261225 38.8262877,26.6937238 38.7456446,26.6937238 L38.5460198,26.6937238 L38.5460198,27.1608062 L38.3252427,27.1608062 L38.3252427,25.9931002 Z M37.8532821,26.5735783 C37.8532821,27.0568601 38.2353455,27.4483453 38.704662,27.4483453 C39.1779446,27.4483453 39.5600079,27.0487604 39.5600079,26.5735783 C39.5600079,26.0889466 39.1726565,25.7042111 38.70334,25.7042111 C38.2406335,25.7042111 37.8519601,26.0835468 37.8519601,26.5722283 L37.8532821,26.5735783 Z M39.7239382,26.5762782 C39.7239382,27.1486566 39.2651979,27.615739 38.705984,27.615739 C38.1507362,27.615739 37.6880298,27.1540564 37.6880298,26.5762782 C37.6880298,25.9877004 38.1613125,25.5368174 38.705984,25.5368174 C39.2546216,25.5368174 39.7226162,25.9890503 39.7226162,26.5762782 L39.7239382,26.5762782 Z" id="Shape" fill="#B7C3CE"></path>
            <path d="M12.9905711,12.566775 C12.9905711,12.3114142 12.8578411,12.0768708 12.6405471,11.9498844 L6.84476223,8.5677415 C6.74692518,8.50945262 6.63732032,8.47892034 6.52621026,8.47475685 L6.46627652,8.47475685 C6.35516646,8.47892034 6.2455616,8.50945262 6.14608253,8.5677415 L0.350571365,11.9498844 C0.134645676,12.0775648 -3.55271368e-14,12.3121082 -3.55271368e-14,12.567469 L0.0127256585,21.6771883 C0.0127256585,21.8034808 0.0770381259,21.9214465 0.186506156,21.9838988 C0.293237485,22.0505147 0.427335821,22.0505147 0.53406715,21.9838988 L3.97957339,19.9826473 C4.19714109,19.8513585 4.32987108,19.6193133 4.32987108,19.3664505 L4.32987108,15.1106683 C4.32987108,14.8566954 4.46260107,14.622152 4.6794846,14.4958594 L6.1463562,13.6390129 C6.25527689,13.5751727 6.37487071,13.5435302 6.4966539,13.5435302 C6.61652138,13.5435302 6.73885191,13.5748951 6.84476223,13.6388741 L8.31094966,14.4954431 C8.52797002,14.6217357 8.66124735,14.856279 8.66124735,15.110252 L8.66124735,19.3657566 C8.66124735,19.6183417 8.79575619,19.8514973 9.01222921,19.9819534 L12.4555461,21.9818171 C12.5636458,22.0470451 12.6981547,22.0470451 12.8058438,21.9818171 C12.9120278,21.9193648 12.9793506,21.8013991 12.9793506,21.6751065 L12.9905711,12.566775 Z M40.3395163,17.3098245 C40.3395163,17.3732484 40.3062653,17.4319536 40.2519419,17.4633186 L38.2612657,18.6271532 C38.2072159,18.658657 38.1404404,18.658657 38.0865274,18.6271532 L36.0955776,17.4633186 C36.0408436,17.4318148 36.0080032,17.3731096 36.0080032,17.3098245 L36.0080032,14.9788245 C36.0080032,14.9152618 36.0408436,14.8566954 36.0942092,14.8247752 L38.0837907,13.6589977 C38.1385247,13.6270776 38.2055739,13.6270776 38.2603079,13.6589977 L40.2512577,14.8247752 C40.3059917,14.8566954 40.3388322,14.9152618 40.3388322,14.9788245 L40.3395163,17.3098245 Z M40.877278,0.0449356755 C40.768631,-0.0164064321 40.6364483,-0.0147410355 40.5291697,0.0486828179 C40.4224384,0.112523021 40.3564839,0.229100782 40.3564839,0.355393356 L40.3564839,9.37629154 C40.3564839,9.46511271 40.3099599,9.54699472 40.2341533,9.59140523 C40.1588941,9.63581583 40.065162,9.63581583 39.9892186,9.59140523 L38.5373988,8.74330205 C38.3211995,8.61645434 38.0549185,8.61645434 37.8378981,8.74330205 L32.0401976,12.136964 C31.8235878,12.2632565 31.6899,12.4977999 31.6899,12.750385 L31.6899,19.5396518 C31.6899,19.7936247 31.8235878,20.0267803 32.0401976,20.1544607 L37.8378981,23.5504819 C38.0543712,23.6767745 38.3209258,23.6767745 38.538083,23.5504819 L44.3357836,20.1530728 C44.5519829,20.0253924 44.6860812,19.792237 44.6860812,19.5382639 L44.6860812,2.61783462 C44.6860812,2.36025328 44.5478778,2.12335062 44.3262051,1.9974744 L40.877278,0.0449356755 Z M60.1837439,14.9174824 C60.3991223,14.7906347 60.5317154,14.5563688 60.5317154,14.3037837 L60.5317154,12.6583719 C60.5317154,12.4052316 60.3989854,12.1716597 60.1831966,12.0442568 L54.4224414,8.65239915 C54.2048738,8.52471875 53.9380455,8.52471875 53.7204777,8.65239915 L47.9241456,12.0456447 C47.7065779,12.1733251 47.5738479,12.4064806 47.5738479,12.6604536 L47.5738479,19.4469447 C47.5738479,19.7023056 47.7093146,19.9382367 47.9268823,20.0645292 L53.686269,23.3939346 C53.8983632,23.5174515 54.1583499,23.5188394 54.3731808,23.3980981 L57.857001,21.434318 C57.966469,21.3718656 58.0362548,21.2539 58.0362548,21.1262196 C58.0362548,20.9985392 57.9692057,20.8791858 57.8597376,20.8167334 L52.0278284,17.4221 C51.9183603,17.3596477 51.8513112,17.2416821 51.8513112,17.1153894 L51.8513112,14.9864575 C51.8513112,14.8593322 51.9169919,14.7421994 52.02646,14.6789143 L53.8408925,13.617224 C53.9489923,13.5533837 54.0817222,13.5533837 54.1898219,13.617224 L56.0056228,14.6789143 C56.1137225,14.7413667 56.1807717,14.8593322 56.1807717,14.9856248 L56.1807717,16.6593484 C56.1807717,16.7856409 56.2478209,16.9036066 56.3559205,16.9674467 C56.4640202,17.0298991 56.5981186,17.0298991 56.7062182,16.9660589 L60.1837439,14.9174824 Z" id="Shape" fill="#B7C3CE"></path>
            <path d="M53.8604603,15.1450391 C53.891598,15.1288921 53.9306239,15.1288921 53.9621767,15.1450391 L54.8060088,15.5728889 C54.8375617,15.5889446 54.8568671,15.6185019 54.8568671,15.6504309 L54.8568671,16.5070429 C54.8568671,16.5389719 54.8375617,16.5685292 54.8060088,16.5845849 L53.9621767,17.0124347 C53.9306239,17.0285817 53.891598,17.0285817 53.8604603,17.0124347 L53.0171472,16.5845849 C52.9849715,16.5685292 52.965251,16.5389719 52.965251,16.5070429 L52.965251,15.6504309 C52.965251,15.6185019 52.9839336,15.5889446 53.0161092,15.5728889 L53.8604603,15.1450391 Z" id="Path" fill="#B7C3CE"></path>
            <path d="M21.8469983,9.54890742 C22.0805312,9.42780491 22.3732257,9.42780491 22.6098723,9.54890742 L28.9386126,12.7577809 C29.1752593,12.8781992 29.3200496,13.0998783 29.3200496,13.3393464 L29.3200496,19.7639354 C29.3200496,20.0034035 29.1752593,20.2250827 28.9386126,20.345501 L22.6098723,23.5543744 C22.3732257,23.6754769 22.0805312,23.6754769 21.8469983,23.5543744 L15.5221502,20.345501 C15.280833,20.2250827 15.1329288,20.0034035 15.1329288,19.7639354 L15.1329288,13.3393464 C15.1329288,13.0998783 15.2730485,12.8781992 15.5143659,12.7577809 L21.8469983,9.54890742 Z" id="Path" fill="#B7C3CE"></path>
        </g>
    </g>
</svg>