<?xml version="1.0" encoding="UTF-8"?>
<svg width="67px" height="38px" viewBox="0 0 67 38" version="1.1" xmlns="http://www.w3.org/2000/svg" xmlns:xlink="http://www.w3.org/1999/xlink">
    <!-- Generator: Sketch 57.1 (83088) - https://sketch.com -->
    <title>php</title>
    <desc>Created with Sketch.</desc>
    <defs>
        <path d="M0.0601603464,17.0812808 C0.0601603464,7.68388546 14.3814465,0.0656342365 32.0469537,0.0656342365 C49.712461,0.0656342365 64.0338628,7.68388546 64.0338628,17.0812808 C64.0338628,26.4785591 49.712461,34.0969273 32.0469537,34.0969273 C14.3814465,34.0969273 0.0601603464,26.4785591 0.0601603464,17.0812808" id="path-1"></path>
        <radialGradient cx="30.0202021%" cy="82.421541%" fx="30.0202021%" fy="82.421541%" r="121.934631%" gradientTransform="translate(0.300202,0.824215),scale(0.538462,1.000000),translate(-0.300202,-0.824215)" id="radialGradient-3">
            <stop stop-color="#AEB2D5" offset="0%"></stop>
            <stop stop-color="#AEB2D5" offset="30%"></stop>
            <stop stop-color="#484C89" offset="75%"></stop>
            <stop stop-color="#484C89" offset="100%"></stop>
        </radialGradient>
        <radialGradient cx="30.0202021%" cy="82.421541%" fx="30.0202021%" fy="82.421541%" r="123.425471%" gradientTransform="translate(0.300202,0.824215),scale(0.531958,1.000000),translate(-0.300202,-0.824215)" id="radialGradient-4">
            <stop stop-color="#AEB2D5" offset="0%"></stop>
            <stop stop-color="#AEB2D5" offset="30%"></stop>
            <stop stop-color="#484C89" offset="75%"></stop>
            <stop stop-color="#484C89" offset="100%"></stop>
        </radialGradient>
        <polygon id="path-5" points="0.0555326274 37.9343658 66.6946856 37.9343658 66.6946856 0.0279618227 0.0555326274 0.0279618227"></polygon>
        <polygon id="path-7" points="0.0555326274 37.9343658 66.6946856 37.9343658 66.6946856 0.0279618227 0.0555326274 0.0279618227"></polygon>
        <polygon id="path-9" points="0.0555326274 37.9343658 66.6946856 37.9343658 66.6946856 0.0279618227 0.0555326274 0.0279618227"></polygon>
        <polygon id="path-11" points="0.0555326274 37.9343658 66.6946856 37.9343658 66.6946856 0.0279618227 0.0555326274 0.0279618227"></polygon>
        <polygon id="path-13" points="0.0555326274 37.9343658 66.6946856 37.9343658 66.6946856 0.0279618227 0.0555326274 0.0279618227"></polygon>
    </defs>
    <g id="php" stroke="none" stroke-width="1" fill="none" fill-rule="evenodd">
        <g>
            <g id="g3442-Clipped" transform="translate(33.828156, 18.562445) scale(-1, 1) rotate(-180.000000) translate(-33.828156, -18.562445) translate(1.328156, 1.062445)">
                <g id="g3450-Clipped">
                    <mask id="mask-2" fill="white">
                        <use xlink:href="#path-1"></use>
                    </mask>
                    <g id="path-1"></g>
                    <g id="g3450" mask="url(#mask-2)" fill-rule="nonzero">
                        <g id="Combined-Shape">
                            <g id="path-4-link" fill="url(#radialGradient-4)">
                                <path d="M0.0601603464,17.0812808 C0.0601603464,7.68388546 14.3814465,0.0656342365 32.0469537,0.0656342365 C49.712461,0.0656342365 64.0338628,7.68388546 64.0338628,17.0812808 C64.0338628,26.4785591 49.712461,34.0969273 32.0469537,34.0969273 C14.3814465,34.0969273 0.0601603464,26.4785591 0.0601603464,17.0812808 Z M31.7242989,2.84612204 C15.7725178,2.84612204 2.84064815,9.27626694 2.84064815,17.2082119 C2.84064815,25.1400502 15.7725178,31.5703018 31.7242989,31.5703018 C47.67608,31.5703018 60.6079497,25.1400502 60.6079497,17.2082119 C60.6079497,9.27626694 47.67608,2.84612204 31.7242989,2.84612204 Z" id="path-4"></path>
                            </g>
                            <g id="path-4-link" fill="#B7C3CE">
                                <path d="M0.0601603464,17.0812808 C0.0601603464,7.68388546 14.3814465,0.0656342365 32.0469537,0.0656342365 C49.712461,0.0656342365 64.0338628,7.68388546 64.0338628,17.0812808 C64.0338628,26.4785591 49.712461,34.0969273 32.0469537,34.0969273 C14.3814465,34.0969273 0.0601603464,26.4785591 0.0601603464,17.0812808 Z M31.7242989,2.84612204 C15.7725178,2.84612204 2.84064815,9.27626694 2.84064815,17.2082119 C2.84064815,25.1400502 15.7725178,31.5703018 31.7242989,31.5703018 C47.67608,31.5703018 60.6079497,25.1400502 60.6079497,17.2082119 C60.6079497,9.27626694 47.67608,2.84612204 31.7242989,2.84612204 Z" id="path-4"></path>
                            </g>
                        </g>
                    </g>
                </g>
            </g>
            <g id="g3472-Clipped">
                <mask id="mask-6" fill="white">
                    <use xlink:href="#path-5"></use>
                </mask>
                <g id="path-5"></g>
            </g>
            <g id="Group-15-Clipped">
                <mask id="mask-8" fill="white">
                    <use xlink:href="#path-7"></use>
                </mask>
                <g id="path-5"></g>
                <g id="Group-15" mask="url(#mask-8)">
                    <g id="path3486-Clipped">
                        <mask id="mask-10" fill="white">
                            <use xlink:href="#path-9"></use>
                        </mask>
                        <g id="path-7"></g>
                        <path d="M20.6777019,19.0832161 C21.9150748,19.0832161 22.8388227,19.3142364 23.4233058,19.7696317 C24.0015328,20.2203547 24.4008971,21.001255 24.6102197,22.0905282 C24.8053893,23.1086784 24.731034,23.8195977 24.3893079,24.203247 C24.0398898,24.5950988 23.2844411,24.7938281 22.1439863,24.7938281 L20.1665485,24.7938281 L19.0702966,19.0832161 L20.6777019,19.0832161 Z M13.2832019,12.0487805 C13.1914117,12.0487805 13.1042366,12.0903122 13.0458807,12.1621621 C12.9874221,12.2339081 12.963731,12.3283928 12.9812685,12.4196588 L15.8865566,27.5528843 C15.9146577,27.6991798 16.0413179,27.804878 16.1885924,27.804878 L22.4502224,27.804878 C24.4181223,27.804878 25.8828683,27.2639274 26.8035393,26.1968736 C27.7291332,25.124213 28.0149648,23.6248139 27.6530346,21.7404158 C27.50576,20.9727019 27.2524395,20.259706 26.9001498,19.6213635 C26.5474498,18.982294 26.0813196,18.3909861 25.5144767,17.8635333 C24.8359471,17.2206222 24.0679862,16.7544286 23.2339774,16.4801116 C22.4131987,16.2094286 21.3590985,16.0721662 20.1010087,16.0721662 L17.565548,16.0721662 L16.8414823,12.300878 C16.8133812,12.1544787 16.6868235,12.0487805 16.5395489,12.0487805 L13.2832019,12.0487805 Z" id="path3486" fill="#B7C3CE" fill-rule="nonzero" mask="url(#mask-10)" transform="translate(20.390244, 19.926829) scale(-1, 1) rotate(-180.000000) translate(-20.390244, -19.926829) "></path>
                    </g>
                    <g id="path3494-Clipped">
                        <mask id="mask-12" fill="white">
                            <use xlink:href="#path-11"></use>
                        </mask>
                        <g id="path-7"></g>
                        <path d="M36.4358736,7.41463415 C36.3401045,7.41463415 36.249359,7.45616587 36.1885413,7.52801575 C36.1275099,7.5997618 36.1028194,7.69414265 36.1210968,7.78551243 L37.4604748,14.4813607 C37.5878818,15.1181459 37.5564576,15.5752025 37.3720808,15.768325 C37.25921,15.8863789 36.9201703,16.0843814 35.9176944,16.0843814 L33.4911874,16.0843814 L31.8072117,7.66673171 C31.7779251,7.52033238 31.645922,7.41463415 31.4924349,7.41463415 L28.1255524,7.41463415 C28.0297833,7.41463415 27.9390377,7.45616587 27.8781132,7.52801575 C27.8171887,7.5997618 27.7924982,7.69424648 27.8107756,7.78551243 L30.8386183,22.918738 C30.8679049,23.0650335 30.999908,23.1707317 31.1533951,23.1707317 L34.5202777,23.1707317 C34.6160469,23.1707317 34.7067924,23.1292 34.7677169,23.0574539 C34.8286414,22.985604 34.8533319,22.8912232 34.8350545,22.7998534 L34.1043876,19.147346 L36.714737,19.147346 C38.7033354,19.147346 40.0517986,18.8067858 40.8371908,18.1061457 C41.6377606,17.3913847 41.8875513,16.2485356 41.579722,14.7089545 L40.1709756,7.66673171 C40.141689,7.52033238 40.0097928,7.41463415 39.8561988,7.41463415 L36.4358736,7.41463415 Z" id="path3494" fill="#B7C3CE" fill-rule="nonzero" mask="url(#mask-12)" transform="translate(34.756098, 15.292683) scale(-1, 1) rotate(-180.000000) translate(-34.756098, -15.292683) "></path>
                    </g>
                    <g id="path3502-Clipped">
                        <mask id="mask-14" fill="white">
                            <use xlink:href="#path-13"></use>
                        </mask>
                        <g id="path-7"></g>
                        <path d="M47.5557175,19.0832161 C48.7930867,19.0832161 49.7168317,19.3142364 50.301313,19.7696317 C50.8795382,20.2202509 51.2789012,21.0011511 51.4883259,22.0905282 C51.6834948,23.1086784 51.6091398,23.8195977 51.2673121,24.203247 C50.9178951,24.5950988 50.1624487,24.7938281 49.0219974,24.7938281 L47.0445656,24.7938281 L45.9483172,19.0832161 L47.5557175,19.0832161 Z M41.0881693,12.0487805 C40.9963793,12.0487805 40.9092046,12.0903122 40.8508487,12.1621621 C40.7923903,12.2339081 40.7685968,12.3283928 40.7861342,12.4196588 L43.6914134,27.5528843 C43.719617,27.6991798 43.8461742,27.804878 43.9935509,27.804878 L50.255059,27.804878 C52.2230554,27.804878 53.6876943,27.2639274 54.6084651,26.1968736 C55.5340562,25.1243168 55.8197843,23.6249177 55.4579577,21.7404158 C55.3104785,20.9727019 55.0572614,20.259706 54.7049728,19.6213635 C54.3522738,18.982294 53.8861451,18.3909861 53.319304,17.8635333 C52.6407764,17.2206222 51.8728179,16.7544286 51.0388116,16.4801116 C50.2180355,16.2094286 49.1639384,16.0721662 47.9058525,16.0721662 L45.370297,16.0721662 L44.6465413,12.300878 C44.6183377,12.1544787 44.4917804,12.0487805 44.3444037,12.0487805 L41.0881693,12.0487805 Z" id="path3502" fill="#B7C3CE" fill-rule="nonzero" mask="url(#mask-14)" transform="translate(48.195122, 19.926829) scale(-1, 1) rotate(-180.000000) translate(-48.195122, -19.926829) "></path>
                    </g>
                </g>
            </g>
        </g>
    </g>
</svg>