<?xml version="1.0" encoding="UTF-8"?>
<svg width="38px" height="38px" viewBox="0 0 38 38" version="1.1" xmlns="http://www.w3.org/2000/svg" xmlns:xlink="http://www.w3.org/1999/xlink">
    <!-- Generator: Sketch 57.1 (83088) - https://sketch.com -->
    <title>postgresql</title>
    <desc>Created with Sketch.</desc>
    <g id="postgresql" stroke="none" stroke-width="1" fill="none" fill-rule="evenodd">
        <g fill-rule="nonzero">
            <path d="M36.75985,22.7615553 C36.5383937,22.0908382 35.958279,21.6236879 35.2080685,21.5115892 C34.8543154,21.4587859 34.4492017,21.4812922 33.9697883,21.580118 C33.1341692,21.7525222 32.5142357,21.8181656 32.061801,21.8308614 C33.7695398,18.9476005 35.1581506,15.6596587 35.9575576,12.5646075 C37.250228,7.55998211 36.5594573,5.28006353 35.7522596,4.24881263 C33.6160352,1.51920056 30.4993434,0.0528275611 26.739346,0.00795920209 C24.7335428,-0.0165669106 22.9727122,0.379457673 22.0541372,0.664249123 C21.1988972,0.513341394 20.2793122,0.429086984 19.3144261,0.413505689 C17.5056974,0.384651438 15.9076048,0.778944767 14.5420774,1.58931638 C13.786096,1.33366773 12.5727748,0.973278143 11.1716124,0.743309768 C7.8761685,0.202292577 5.22013477,0.623853173 3.27737811,1.99630558 C0.924891089,3.65802185 -0.165655298,6.54517813 0.0360359112,10.5775596 C0.100092347,11.8578227 0.816254837,15.7531465 1.94387893,19.4473561 C2.59194539,21.5707404 3.28300469,23.3340236 3.99786873,24.6887307 C5.01166282,26.6097024 6.09643835,27.7409332 7.31423198,28.1472011 C7.99677927,28.3745726 9.23693494,28.533848 10.5412913,27.4474855 C10.7066262,27.647734 10.9272169,27.8466841 11.2199433,28.0314955 C11.5917303,28.2659363 12.046329,28.4575285 12.5003506,28.57107 C14.1365309,28.980079 15.6691244,28.8777907 16.9766547,28.3044567 C16.9847339,28.537022 16.9909376,28.7591997 16.9961314,28.9510805 C17.0047876,29.2622736 17.0134439,29.5674073 17.0248413,29.8527758 C17.102315,31.7822595 17.2336018,33.2825363 17.6225571,34.3322539 C17.6439093,34.3899624 17.6726193,34.4779678 17.7029162,34.5713113 C17.8969611,35.1654204 18.2214271,36.1600264 19.0469472,36.9389468 C19.9017544,37.745856 20.9357464,37.9932811 21.8827429,37.9932811 C22.3576839,37.9932811 22.8108399,37.930956 23.2083072,37.8458359 C24.6250508,37.5421449 26.2341081,37.0796113 27.3980886,35.4222232 C28.4985897,33.8554374 29.0335475,31.4955925 29.1303535,27.7772896 C29.1429051,27.6721159 29.1544468,27.5717031 29.1655557,27.4760512 L29.1886391,27.2795538 L29.4478945,27.3023486 L29.5146921,27.306821 C30.9576931,27.3726087 32.7221305,27.0666094 33.8057519,26.563247 C34.6620018,26.165924 37.4058967,24.7172964 36.75985,22.7615553" id="Path"></path>
            <path d="M34.2925231,23.1418543 C30.0018961,24.0269584 29.7068614,22.5742912 29.7068614,22.5742912 C34.2369787,15.8522608 36.1308274,7.3196262 34.4966669,5.23129984 C30.0381082,-0.465250501 22.3203176,2.22887084 22.1914834,2.29869813 L22.1500775,2.30620023 C21.3023397,2.1301893 20.3537562,2.02544838 19.2874474,2.00799155 C17.3461334,1.97625188 15.8734125,2.51698053 14.7558874,3.36442986 C14.7558874,3.36442986 0.988081897,-2.30745011 1.62850198,10.4977776 C1.76469404,13.2219074 5.53305912,31.110244 10.0276857,25.7071414 C11.6705024,23.7313466 13.257919,22.0608298 13.257919,22.0608298 C14.0462171,22.5845345 14.9900396,22.8517248 15.9794519,22.7557844 L16.0563484,22.6905738 C16.0323994,22.935835 16.043364,23.175758 16.0870782,23.4598281 C14.9291572,24.7535084 15.269493,24.9805914 12.9548051,25.4571193 C10.6125613,25.9398509 11.9884762,26.7991305 12.8868533,27.0239051 C13.975957,27.296145 16.4955101,27.6819263 18.1979109,25.2987095 L18.1301034,25.5706608 C18.5836922,25.9340801 18.9022431,27.9342567 18.8488628,29.7476021 C18.7954824,31.5608032 18.7598474,32.8057198 19.1172073,33.778108 C19.4748557,34.7504962 19.8310614,36.9383698 22.8740307,36.286408 C25.4165229,35.7414955 26.7341523,34.3295127 26.917521,31.9741403 C27.0475094,30.2997281 27.341967,30.5472976 27.3604338,29.0501948 L27.5966058,28.3415345 C27.8688457,26.0717149 27.6398872,25.339394 29.2062402,25.6800184 L29.5871163,25.7134893 C30.7398435,25.7658598 32.2489208,25.5279565 33.134602,25.1163506 C35.0415794,24.2313908 36.172666,22.7536204 34.2922346,23.1418543 L34.2925231,23.1418543" id="Path" fill="#B7C3CE" opacity="0"></path>
            <path d="M15.5617866,11.716004 C15.1751396,11.6621909 14.8249933,11.7119644 14.6478282,11.8461367 C14.548281,11.9215906 14.517407,12.0090189 14.5090393,12.0691801 C14.4868215,12.2285998 14.5984874,12.4048993 14.6671606,12.4957901 C14.8613497,12.7531701 15.1449869,12.9300466 15.4257388,12.9689998 C15.4664233,12.9747707 15.5069635,12.9773676 15.5472152,12.9773676 C16.0153754,12.9773676 16.4411199,12.6127941 16.4786304,12.3437282 C16.5255185,12.0067106 16.0362947,11.7820803 15.5617866,11.7161483 M28.3707653,11.7266801 C28.3338319,11.4625194 27.8637962,11.3872099 27.4177095,11.4492465 C26.9721998,11.5112831 26.5402517,11.7123973 26.5763195,11.977135 C26.6051738,12.1830101 26.9769608,12.5344548 27.4169881,12.5344548 C27.4542101,12.5344548 27.4917206,12.5320022 27.5295197,12.5266642 C27.8232559,12.4859797 28.0387972,12.299437 28.1412298,12.1919549 C28.2970427,12.0280628 28.3873565,11.8454153 28.3707653,11.7266801" id="Shape" fill="#B7C3CE"></path>
            <path d="M35.7202314,23.0412972 C35.5566278,22.5465911 35.0300377,22.3874599 34.1551769,22.5680875 C31.557573,23.1041995 30.627312,22.7328453 30.3218897,22.5079264 C32.3409659,19.4320634 34.0019608,15.7139047 34.8980295,12.2449024 C35.3224756,10.6016529 35.5569163,9.0755516 35.5761044,7.83164487 C35.5973123,6.46640602 35.364747,5.46314374 34.8851894,4.85027947 C32.9516661,2.3796343 30.1138506,1.05435859 26.6787521,1.01800223 C24.317176,0.99145632 22.3219046,1.59580859 21.9351134,1.76576012 C21.1205579,1.56320329 20.2325683,1.43884147 19.2658067,1.42297163 C17.4930016,1.39426165 15.9605523,1.81870767 14.6918309,2.68390237 C14.1407148,2.47874865 12.716469,1.98981338 10.9746822,1.70920579 C7.96345261,1.22445439 5.57056964,1.591769 3.86297512,2.80148344 C1.82543224,4.24506157 0.884783681,6.82549717 1.06699827,10.4709431 C1.12831355,11.697393 1.82716349,15.4703748 2.92997294,19.0836483 C4.38163026,23.8394058 5.95966921,26.5316516 7.61994276,27.0855089 C7.81427614,27.1502867 8.03832939,27.1955879 8.28546604,27.1955879 C8.89111676,27.1955879 9.63368088,26.9226267 10.4062534,25.9938084 C11.3485703,24.8633786 12.3233365,23.7603979 13.3293332,22.6862457 C13.9820164,23.0365363 14.6990445,23.2321681 15.4323753,23.251789 C15.433818,23.2709771 15.4356935,23.2901651 15.4374248,23.309209 C15.3111911,23.459739 15.1875801,23.6124491 15.0666477,23.7672702 C14.5585243,24.4123069 14.4527735,24.5466235 12.8171703,24.8833526 C12.3518955,24.9794372 11.1162123,25.234076 11.0980341,26.1002806 C11.0784132,27.0467 12.5587805,27.4441673 12.7274336,27.4862945 C13.3151947,27.6334512 13.8814593,27.7060196 14.4214666,27.7060196 C15.7347678,27.7060196 16.8905248,27.27436 17.8141494,26.4391737 C17.7857279,29.8131012 17.9263924,33.1376879 18.3315061,34.1506164 C18.6633299,34.9798875 19.4738458,37.0063215 22.0340835,37.0063215 C22.4097658,37.0063215 22.8232472,36.9626073 23.2781344,36.86508 C25.9501823,36.2923231 27.110556,35.1113186 27.5593838,32.5076554 C27.7995955,31.1161592 28.2117784,27.793448 28.405679,26.0111209 C28.8148322,26.138801 29.3415666,26.1972309 29.9110052,26.1970866 C31.0986462,26.1970866 32.4690788,25.9447562 33.3285026,25.5458462 C34.2939658,25.0974511 36.0361854,23.9972385 35.7202314,23.0412972 L35.7202314,23.0412972 Z M29.3570036,10.9975332 C29.3482031,11.5236905 29.2757789,12.0013726 29.1990266,12.499974 C29.1163592,13.0362303 29.0309506,13.5906647 29.0094542,14.2636901 C28.9882463,14.9186815 29.0700481,15.5996418 29.1491087,16.2582401 C29.3089613,17.588421 29.4729977,18.9578437 28.8380599,20.3090883 C28.7325888,20.1222048 28.6386374,19.9290503 28.556731,19.7307048 C28.4778146,19.5394012 28.3064204,19.2321034 28.0690942,18.8067918 C27.1459024,17.1511349 24.9839977,13.2739893 26.0907025,11.6919107 C26.4203623,11.2210094 27.2569913,10.7368351 29.3570036,10.9975332 L29.3570036,10.9975332 Z M26.8114817,2.08344542 C29.8893645,2.15139718 32.3240862,3.30282603 34.0478391,5.50555949 C35.3699408,7.19512011 33.9140996,14.8829023 29.6995036,21.5151959 C29.6571191,21.4613019 29.6145107,21.4075844 29.5716792,21.354045 L29.5182989,21.2873916 C30.6074025,19.488762 30.3944582,17.7091761 30.2048858,16.1314257 C30.1269793,15.4839363 30.0534009,14.8723705 30.0721562,14.2978823 C30.0914885,13.6890577 30.1719919,13.1667957 30.2498984,12.6618464 C30.3455502,12.0396045 30.4429333,11.3957219 30.4160989,10.6367108 C30.4361526,10.5570731 30.4442318,10.4630082 30.4337,10.3513423 C30.3651711,9.62349381 29.5341687,7.44514219 27.8404242,5.47353128 C26.9139142,4.39510367 25.562814,3.18827466 23.7180175,2.37429626 C24.5115094,2.20982703 25.5965735,2.0564667 26.8114817,2.08344542 Z M9.58866825,25.3140023 C8.73746787,26.3374625 8.1497068,26.1412536 7.95638332,26.0769086 C6.6968953,25.6567907 5.23542753,22.9946976 3.94694098,18.7733208 C2.83201276,15.1206613 2.18048379,11.4476595 2.12883468,10.417707 C1.96609671,7.16035074 2.75569326,4.89024261 4.47583939,3.67028491 C7.27527874,1.68511249 11.8778202,2.87333052 13.7272334,3.47595153 C13.7006874,3.5022089 13.6729874,3.52673501 13.64673,3.5534252 C10.61184,6.61832365 10.6838313,11.854793 10.6913334,12.1749309 C10.6910449,12.2984271 10.7014324,12.4732838 10.715571,12.713784 C10.7677972,13.59456 10.865036,15.2337699 10.6053478,17.0901081 C10.3641262,18.8151595 10.8959101,20.5035659 12.0640744,21.7225137 C12.1839612,21.8473717 12.3099687,21.9662049 12.4416322,22.0785752 C11.9216787,22.6354622 10.7916019,23.8669616 9.58866825,25.3140023 Z M12.8317417,20.9868746 C11.8902275,20.0043874 11.4626075,18.6378501 11.6583836,17.2372648 C11.932499,15.27633 11.8313649,13.5684469 11.7769746,12.6508817 C11.7693282,12.5224803 11.7625475,12.4099488 11.7586521,12.3212219 C12.2019977,11.9280828 14.2565646,10.8272931 15.7217834,11.1630123 C16.3903364,11.3160841 16.7977584,11.7714042 16.9671328,12.5545085 C17.843725,16.6089635 17.0831269,18.2988127 16.4719939,19.656838 C16.3460451,19.9365799 16.2270213,20.2010291 16.1254544,20.4745674 L16.0466823,20.6860691 C15.8472994,21.2207383 15.6617666,21.7178971 15.5467824,22.1899526 C14.5458284,22.1870672 13.5721418,21.7594472 12.8317417,20.9867304 L12.8317417,20.9868746 Z M12.9853906,26.454755 C12.693097,26.3817538 12.4302348,26.2549394 12.2760088,26.1497656 C12.4048431,26.0891717 12.6340901,26.0066485 13.0317017,25.9247025 C14.9558473,25.5286779 15.2530461,25.2490802 15.9019782,24.4251471 C16.0507219,24.2361517 16.2193749,24.0220532 16.4529501,23.7612108 L16.4532386,23.7609222 C16.8010766,23.3713899 16.9602078,23.4374661 17.2487503,23.5572112 C17.482614,23.653873 17.7104183,23.9470322 17.8027519,24.2696227 C17.8464661,24.4219731 17.8955183,24.7110927 17.7349444,24.9361558 C16.3793718,26.8341884 14.4040098,26.8098066 12.9853906,26.454755 L12.9853906,26.454755 Z M23.0553796,35.8254613 C20.7014499,36.3298336 19.8679949,35.1287755 19.3187542,33.755746 C18.9642798,32.8693434 18.7900001,28.8721641 18.9136406,24.4578967 C18.9152275,24.3991783 18.9068598,24.3424797 18.8907014,24.2890993 C18.8762474,24.1836904 18.854262,24.0794523 18.8249137,23.9771848 C18.6411122,23.3348892 18.1931499,22.7976231 17.6557395,22.5748683 C17.4422181,22.48643 17.0503774,22.3241248 16.579476,22.4445913 C16.6798888,22.0308214 16.8540242,21.5635268 17.0428753,21.0575675 L17.1220802,20.8447674 C17.2112398,20.6048444 17.3231943,20.356265 17.4414967,20.0931142 C18.0810512,18.6723309 18.9569219,16.726256 18.0063187,12.3298782 C17.6502572,10.6831661 16.4611736,9.8789982 14.6586486,10.0658295 C13.5780569,10.1776397 12.589366,10.6136274 12.0962469,10.8636495 C11.9902075,10.9173184 11.8932572,10.969256 11.8026549,11.019751 C11.9402896,9.36063159 12.4602432,6.25995386 14.4053082,4.29815339 C15.6300269,3.06319148 17.2610134,2.45321264 19.2482056,2.48610648 C23.1637273,2.55016292 25.6746242,4.5595729 27.0916564,6.23412931 C28.3127683,7.67698609 28.9739634,9.13051895 29.2378356,9.91448892 C27.2533845,9.71265344 25.9037269,10.1043499 25.2195927,11.082509 C23.7311462,13.2102214 26.0338596,17.3398417 27.1405644,19.3245813 C27.343554,19.6882891 27.5186993,20.0026561 27.5738109,20.1362513 C27.9342005,21.0096695 28.4007738,21.5928139 28.7413982,22.0184141 C28.8458506,22.1488353 28.947129,22.2753612 29.0241698,22.3858729 C28.4231358,22.5591427 27.343554,22.9594954 27.441947,24.960682 C27.3625978,25.9648099 26.798353,30.6660329 26.511686,32.3270278 C26.1332625,34.5213935 25.3257763,35.3386901 23.0553796,35.8256056 L23.0553796,35.8254613 Z M32.8808289,24.5815371 C32.2662334,24.8667614 31.2377236,25.0807156 30.2607187,25.1267382 C29.1815698,25.1772331 28.6321848,25.0058389 28.5029178,24.9003766 C28.4423239,23.6532959 28.9064445,23.5230189 29.3976881,23.3850956 C29.4748732,23.3634549 29.5501828,23.3422471 29.6228955,23.3168553 C29.6680524,23.3536445 29.7175375,23.3901451 29.7717835,23.4259244 C30.6391422,23.9983927 32.1861628,24.0601408 34.3702853,23.6092932 L34.3942343,23.6045322 C34.0996324,23.879946 33.5955487,24.249569 32.8808289,24.5815371 Z" id="Shape" fill="#B7C3CE"></path>
        </g>
    </g>
</svg>