<?xml version="1.0" encoding="UTF-8"?>
<svg width="42px" height="38px" viewBox="0 0 42 38" version="1.1" xmlns="http://www.w3.org/2000/svg" xmlns:xlink="http://www.w3.org/1999/xlink">
    <!-- Generator: Sketch 57.1 (83088) - https://sketch.com -->
    <title>react</title>
    <desc>Created with Sketch.</desc>
    <g id="react" stroke="none" stroke-width="1" fill="none" fill-rule="evenodd">
        <g fill="#B7C3CE" fill-rule="nonzero">
            <path d="M41.8974359,19.0043489 C41.8974359,16.177615 38.4216396,13.4987412 33.0926548,11.8374914 C34.3224205,6.3057908 33.7758579,1.9047837 31.3675666,0.495765621 C30.8124641,0.165255207 30.1634211,0.00869764248 29.4545977,0.00869764248 L29.4545977,1.94827192 C29.8474396,1.94827192 30.1634211,2.0265507 30.4281623,2.17441062 C31.5896077,2.85282673 32.0934701,5.43602655 31.7006282,8.75852597 C31.6066878,9.57610437 31.452967,10.437171 31.2650862,11.3156329 C29.5912384,10.898146 27.7636698,10.5763332 25.8421608,10.3675898 C24.6892555,8.75852597 23.4936499,7.29732204 22.2895042,6.01876859 C25.0735572,3.38338293 27.6868095,1.93957427 29.4631378,1.93957427 L29.4631378,0 C29.4631378,0 29.4631378,0 29.4631378,0 C27.1146268,0 24.0402124,1.70473793 20.9316378,4.66193637 C17.8230633,1.72213321 14.748649,0.0347905699 12.400138,0.0347905699 L12.400138,1.97436484 C14.1679262,1.97436484 16.7897185,3.40947585 19.5737715,6.02746624 C18.378166,7.30601968 17.1825604,8.75852597 16.046735,10.3675898 C14.116686,10.5763332 12.2891175,10.898146 10.6152696,11.3243305 C10.4188487,10.4545662 10.273668,9.61089494 10.1711876,8.80201419 C9.76980565,5.47951476 10.265128,2.89631495 11.4180333,2.20920119 C11.6742346,2.05264362 12.0072961,1.98306249 12.400138,1.98306249 L12.400138,0.0434882124 C12.400138,0.0434882124 12.400138,0.0434882124 12.400138,0.0434882124 C11.6827747,0.0434882124 11.0337315,0.200045777 10.4700889,0.530556191 C8.07033773,1.93957427 7.53231522,6.33188373 8.770621,11.8461891 C3.45871617,13.5161364 0,16.1863127 0,19.0043489 C0,21.8310826 3.47579625,24.5099565 8.80478117,26.1712062 C7.57501542,31.7029069 8.12157797,36.1039139 10.5298693,37.512932 C11.0849718,37.8434424 11.7340148,38 12.4513783,38 C14.7998892,38 17.8743036,36.295262 20.9828781,33.3380636 C24.0914526,36.2778668 27.1658671,37.9652094 29.514378,37.9652094 C30.2317414,37.9652094 30.8807844,37.8086519 31.444427,37.4781414 C33.8441782,36.0691233 34.3822007,31.6768139 33.1438949,26.1625086 C38.4387197,24.5012588 41.8974359,21.822385 41.8974359,19.0043489 Z M30.7783039,13.2030213 C30.4623224,14.3250172 30.0694806,15.4818036 29.6253985,16.6385901 C29.2752569,15.9427787 28.9080351,15.2469673 28.5066533,14.5511558 C28.1138115,13.8553445 27.6953495,13.1769283 27.2768876,12.5159075 C28.4895732,12.698558 29.6595587,12.9246967 30.7783039,13.2030213 Z M26.8669656,22.4660105 C26.2008425,23.6401923 25.5176393,24.7534905 24.808816,25.78851 C23.5363501,25.9015793 22.246804,25.9624628 20.9487179,25.9624628 C19.6591719,25.9624628 18.3696259,25.9015793 17.1057,25.7972076 C16.3968766,24.7621882 15.7051334,23.6575875 15.0390103,22.4921034 C14.3899673,21.3527123 13.8007046,20.1959259 13.2626821,19.0304417 C13.7921645,17.8649576 14.3899673,16.6994736 15.0304703,15.5600824 C15.6965934,14.3859007 16.3797966,13.2726024 17.0886199,12.2375829 C18.3610858,12.1245137 19.6506319,12.0636301 20.9487179,12.0636301 C22.238264,12.0636301 23.52781,12.1245137 24.7917359,12.2288853 C25.5005593,13.2639048 26.1923025,14.3685053 26.8584256,15.5339895 C27.5074686,16.6733806 28.0967313,17.8301671 28.6347538,18.9956511 C28.0967313,20.1611353 27.5074686,21.3266194 26.8669656,22.4660105 Z M29.6253985,21.335317 C30.0865607,22.5008011 30.4794026,23.6662852 30.803924,24.7969787 C29.6851788,25.0753033 28.5066533,25.3101396 27.2854275,25.4927901 C27.7038896,24.8230717 28.1223515,24.1359579 28.5151934,23.4314488 C28.9080351,22.7356375 29.2752569,22.0311284 29.6253985,21.335317 Z M20.9657981,30.6157015 C20.1715743,29.7807278 19.3773506,28.8500801 18.5916669,27.8324559 C19.3602705,27.8672465 20.1459542,27.8933395 20.9401779,27.8933395 C21.7429416,27.8933395 22.5371654,27.8759441 23.3143091,27.8324559 C22.5457055,28.8500801 21.7514817,29.7807278 20.9657981,30.6157015 Z M14.6120084,25.4927901 C13.3993226,25.3101396 12.2293371,25.0840009 11.1105919,24.8056763 C11.4265734,23.6836805 11.8194153,22.526894 12.2634974,21.3701075 C12.6136389,22.065919 12.9808607,22.7617304 13.3822425,23.4575418 C13.7836244,24.1533531 14.1935463,24.8317693 14.6120084,25.4927901 Z M20.9230979,7.39299611 C21.7173215,8.22796979 22.5115452,9.15861753 23.2972289,10.1762417 C22.5286253,10.1414511 21.7429416,10.1153582 20.9487179,10.1153582 C20.1459542,10.1153582 19.3517304,10.1327535 18.5745869,10.1762417 C19.3431905,9.15861753 20.1374141,8.22796979 20.9230979,7.39299611 Z M14.6034683,12.5159075 C14.1850064,13.185626 13.7665444,13.8727398 13.3737026,14.5772488 C12.9808607,15.2730602 12.6136389,15.9688716 12.2634974,16.664683 C11.8023352,15.4991989 11.4094934,14.3337148 11.0849718,13.2030213 C12.2037171,12.9333944 13.3822425,12.698558 14.6034683,12.5159075 Z M6.87473215,23.4053559 C3.85155801,22.0920119 1.89588887,20.3698787 1.89588887,19.0043489 C1.89588887,17.638819 3.85155801,15.9079881 6.87473215,14.6033417 C7.60917558,14.281529 8.41193934,13.9945067 9.2403232,13.7248799 C9.72710548,15.4296177 10.3676085,17.2039368 11.1618322,19.0217441 C10.3761486,20.8308537 9.74418556,22.5964751 9.26594333,24.2925155 C8.42047937,24.0228885 7.61771562,23.7271687 6.87473215,23.4053559 Z M11.4692736,35.834287 C10.3078282,35.1558709 9.8039658,32.572671 10.1968077,29.2501716 C10.2907481,28.4325933 10.4444689,27.5715267 10.6323497,26.6930647 C12.3061975,27.1105516 14.1337661,27.4323644 16.0552751,27.6411078 C17.2081804,29.2501716 18.403786,30.7113756 19.6079317,31.9899291 C16.8238787,34.6253147 14.2106264,36.0691233 12.4342981,36.0691233 C12.0499963,36.0604257 11.7254749,35.9821469 11.4692736,35.834287 Z M31.7262483,29.2066835 C32.1276302,32.5291829 31.6323079,35.1123827 30.4794026,35.7994965 C30.2232013,35.9560541 29.8901398,36.0256352 29.4972979,36.0256352 C27.7295097,36.0256352 25.1077174,34.5905241 22.3236643,31.9725337 C23.5192699,30.6939803 24.7148755,29.241474 25.8507009,27.6324102 C27.7807499,27.4236668 29.6083184,27.101854 31.2821663,26.6756695 C31.4785872,27.5541314 31.6323079,28.3978027 31.7262483,29.2066835 Z M35.0141637,23.4053559 C34.2797203,23.7271687 33.4769566,24.0141909 32.6485726,24.2838178 C32.1617904,22.5790799 31.5212873,20.8047608 30.7270637,18.9869535 C31.5127474,17.1778439 32.1447103,15.4122225 32.6229525,13.7161822 C33.4684165,13.9858091 34.2711802,14.281529 35.0227038,14.6033417 C38.0458779,15.9166857 40.001547,17.638819 40.001547,19.0043489 C39.9930069,20.3698787 38.0373378,22.1007096 35.0141637,23.4053559 Z" id="Shape"></path>
            <circle id="Oval" cx="20.4615385" cy="19.4871795" r="3.8974359"></circle>
        </g>
    </g>
</svg>