<?xml version="1.0" encoding="UTF-8"?>
<svg width="1440px" height="1225px" viewBox="0 0 1440 1225" version="1.1" xmlns="http://www.w3.org/2000/svg" xmlns:xlink="http://www.w3.org/1999/xlink">
    <!-- Generator: Sketch 52.5 (67469) - http://www.bohemiancoding.com/sketch -->
    <title>product marketing-bg-desktop</title>
    <desc>Created with Sketch.</desc>
    <g id="Page-1" stroke="none" stroke-width="1" fill="none" fill-rule="evenodd">
        <g id="Desktop" transform="translate(0.000000, -5291.000000)" fill-rule="nonzero">
            <g id="product-marketing-bg-desktop" transform="translate(-26.000000, 5291.000000)">
                <path d="M26,1158.07785 C236.750741,1172.80862 377.502856,1103.04717 448.256346,948.793505 C502.413135,830.723241 609.185817,895.338648 755.111218,751.98267 C901.036619,608.626692 996.378612,800.839631 1009.90376,628.117808 C1023.80916,450.540081 1063.68222,322.516219 1129.52296,244.046221 C1185.60176,175.494823 1241.18536,127.056915 1296.27377,98.7324943 C1351.36217,70.408074 1408.07837,53.5287033 1466.42237,48.094382" id="marketing-line" stroke="#46A5F5" stroke-width="6" opacity="0.0849888393"></path>
                <rect id="Rectangle-39-Copy-16" fill="#45A5F5" x="922" y="1119" width="20" height="11"></rect>
                <rect id="Rectangle-39-Copy-15" fill="#4285F4" x="1344" y="269" width="49" height="11"></rect>
                <rect id="Rectangle-39-Copy-4" fill="#4285F4" x="1103" y="0" width="60" height="11"></rect>
                <rect id="Rectangle-39-Copy-18" fill="#92D4ED" x="1278" y="207" width="30" height="11"></rect>
                <path d="M0,1192.51968 C62.9127979,1195.91947 116.49658,1203.03652 160.751347,1213.87084 C224.172547,1229.39744 378.522709,1213.9132 426.834814,1192.51968 C525.584463,1148.79146 618.332316,1203.53653 739.497387,1213.87084 C860.662458,1224.20516 885.070367,1156.873 960.350067,1146.63499 C1035.62977,1136.39699 1166.86048,1217.81613 1229.88808,1200.57609 C1292.91567,1183.33605 1384.46731,1109.71536 1493.10323,1099" id="squiggle" stroke="#92D4ED" stroke-width="8" opacity="0.0849888393"></path>
                <rect id="Rectangle-39-Copy-9" fill="#2F5EC4" x="376" y="1160" width="35" height="11"></rect>
                <rect id="Rectangle-39-Copy-20" fill="#92D4ED" x="586" y="1066" width="49" height="11"></rect>
            </g>
        </g>
    </g>
</svg>