<?xml version="1.0" encoding="UTF-8"?>
<svg width="1253px" height="1349px" viewBox="0 0 1253 1349" version="1.1" xmlns="http://www.w3.org/2000/svg" xmlns:xlink="http://www.w3.org/1999/xlink">
    <!-- Generator: Sketch 52.6 (67491) - http://www.bohemiancoding.com/sketch -->
    <title>tech-grid</title>
    <desc>Created with Sketch.</desc>
    <defs>
        <radialGradient cx="64.4829037%" cy="48.4545373%" fx="64.4829037%" fy="48.4545373%" r="64.4829037%" gradientTransform="translate(0.644829,0.484545),scale(1.000000,0.930319),rotate(180.000000),translate(-0.644829,-0.484545)" id="radialGradient-1">
            <stop stop-color="#0D24A9" offset="0%"></stop>
            <stop stop-color="#08197A" stop-opacity="0" offset="100%"></stop>
        </radialGradient>
    </defs>
    <g id="Home-Page" stroke="none" stroke-width="1" fill="none" fill-rule="evenodd">
        <g id="Desktop" transform="translate(-187.000000, -3868.000000)" fill-rule="nonzero" stroke="url(#radialGradient-1)" stroke-width="0.5">
            <path d="M972.5,5216.5 L973,5216.5 L972.5,5216.5 L972.5,5128.5 L884.5,5128.5 L884.5,5042.5 L798.5,5042.5 L798.5,4954.5 L710.5,4954.5 L710.5,4867.5 L623.5,4867.5 L623.5,4954.5 L536.5,4954.5 L536.5,5042.5 L623.5,5042.5 L623.5,5128.5 L710.5,5128.5 L710.5,5216.5 L798.5,5216.5 L798.5,5217 L798.5,5216.5 L710.5,5216.5 L710.5,5128.5 L623.5,5128.5 L623.5,5042.5 L536.5,5042.5 L536.5,5128.5 L623.5,5128.5 L623.5,5216.5 L710.5,5216.5 L710.5,5217 L710.5,5216.5 L623.5,5216.5 L623.5,5128.5 L536.5,5128.5 L536.5,5042.5 L449.5,5042.5 L449.5,5128.5 L361.5,5128.5 L361.5,5216.5 L449.5,5216.5 L449.5,5217 L449.5,5216.5 L361.5,5216.5 L361.5,5217 L361.5,5216.5 L275.5,5216.5 L275.5,5217 L275.5,5216.5 L361.5,5216.5 L361.5,5128.5 L449.5,5128.5 L449.5,5216.5 L536.5,5216.5 L536.5,5217 L536.5,5216.5 L449.5,5216.5 L449.5,5128.5 L536.5,5128.5 L536.5,5216.5 L623.5,5216.5 L623.5,5217 L623.5,5216.5 L536.5,5216.5 L536.5,5128.5 L449.5,5128.5 L449.5,5042.5 L536.5,5042.5 L536.5,4954.5 L623.5,4954.5 L623.5,5042.5 L710.5,5042.5 L710.5,5128.5 L798.5,5128.5 L798.5,5216.5 L884.5,5216.5 L884.5,5217 L884.5,5216.5 L798.5,5216.5 L798.5,5128.5 L710.5,5128.5 L710.5,5042.5 L623.5,5042.5 L623.5,4954.5 L710.5,4954.5 L710.5,5042.5 L798.5,5042.5 L798.5,5128.5 L884.5,5128.5 L884.5,5216.5 L972.5,5216.5 L972.5,5217 L972.5,5216.5 L884.5,5216.5 L884.5,5128.5 L798.5,5128.5 L798.5,5042.5 L710.5,5042.5 L710.5,4954.5 L623.5,4954.5 L623.5,4867.5 L710.5,4867.5 L710.5,4780.5 L798.5,4780.5 L798.5,4867.5 L884.5,4867.5 L884.5,4954.5 L972.5,4954.5 L972.5,5042.5 L973,5042.5 L972.5,5042.5 L972.5,4954.5 L884.5,4954.5 L884.5,4867.5 L798.5,4867.5 L798.5,4780.5 L884.5,4780.5 L884.5,4867.5 L972.5,4867.5 L972.5,4954.5 L973,4954.5 L972.5,4954.5 L972.5,4867.5 L884.5,4867.5 L884.5,4780.5 L798.5,4780.5 L798.5,4693.5 L884.5,4693.5 L884.5,4605.5 L972.5,4605.5 L972.5,4693.5 L973,4693.5 L972.5,4693.5 L972.5,4605.5 L973,4605.5 L972.5,4605.5 L972.5,4519.5 L973,4519.5 L972.5,4519.5 L972.5,4432 L972.5,4519.5 L884.5,4519.5 L884.5,4432 L884.5,4519.5 L972.5,4519.5 L972.5,4605.5 L884.5,4605.5 L884.5,4693.5 L972.5,4693.5 L972.5,4780.5 L973,4780.5 L972.5,4780.5 L972.5,4693.5 L884.5,4693.5 L884.5,4780.5 L972.5,4780.5 L972.5,4867.5 L973,4867.5 L972.5,4867.5 L972.5,4780.5 L884.5,4780.5 L884.5,4693.5 L798.5,4693.5 L798.5,4780.5 L710.5,4780.5 L710.5,4867.5 L798.5,4867.5 L798.5,4954.5 L884.5,4954.5 L884.5,5042.5 L972.5,5042.5 L972.5,5128.5 L973,5128.5 L972.5,5128.5 L972.5,5042.5 L884.5,5042.5 L884.5,4954.5 L798.5,4954.5 L798.5,4867.5 L710.5,4867.5 L710.5,4954.5 L798.5,4954.5 L798.5,5042.5 L884.5,5042.5 L884.5,5128.5 L972.5,5128.5 L972.5,5216.5 Z M275.5,5216.5 L275.5,5128.5 L361.5,5128.5 L361.5,5042.5 L449.5,5042.5 L449.5,4954.5 L536.5,4954.5 L536.5,4867.5 L623.5,4867.5 L623.5,4780.5 L710.5,4780.5 L710.5,4693.5 L798.5,4693.5 L798.5,4605.5 L884.5,4605.5 L884.5,4519.5 L798.5,4519.5 L798.5,4432 L798.5,4519.5 L884.5,4519.5 L884.5,4605.5 L798.5,4605.5 L798.5,4693.5 L710.5,4693.5 L710.5,4780.5 L623.5,4780.5 L623.5,4867.5 L536.5,4867.5 L536.5,4954.5 L449.5,4954.5 L449.5,5042.5 L361.5,5042.5 L361.5,5128.5 L275.5,5128.5 L275.5,5216.5 L187.5,5216.5 L187.5,5128.5 L275.5,5128.5 L275.5,5042.5 L361.5,5042.5 L361.5,4954.5 L449.5,4954.5 L449.5,4867.5 L536.5,4867.5 L536.5,4780.5 L623.5,4780.5 L623.5,4693.5 L710.5,4693.5 L710.5,4605.5 L798.5,4605.5 L798.5,4519.5 L710.5,4519.5 L710.5,4432 L710.5,4519.5 L798.5,4519.5 L798.5,4605.5 L710.5,4605.5 L710.5,4693.5 L623.5,4693.5 L623.5,4780.5 L536.5,4780.5 L536.5,4867.5 L449.5,4867.5 L449.5,4954.5 L361.5,4954.5 L361.5,5042.5 L275.5,5042.5 L275.5,5128.5 L187.5,5128.5 L187.5,5042.5 L275.5,5042.5 L275.5,4954.5 L361.5,4954.5 L361.5,4867.5 L449.5,4867.5 L449.5,4780.5 L536.5,4780.5 L536.5,4693.5 L623.5,4693.5 L623.5,4605.5 L710.5,4605.5 L710.5,4519.5 L623.5,4519.5 L623.5,4432 L623.5,4519.5 L710.5,4519.5 L710.5,4605.5 L623.5,4605.5 L623.5,4693.5 L536.5,4693.5 L536.5,4780.5 L449.5,4780.5 L449.5,4867.5 L361.5,4867.5 L361.5,4954.5 L275.5,4954.5 L275.5,5042.5 L187.5,5042.5 L187.5,4954.5 L275.5,4954.5 L275.5,4867.5 L361.5,4867.5 L361.5,4780.5 L449.5,4780.5 L449.5,4693.5 L536.5,4693.5 L536.5,4605.5 L623.5,4605.5 L623.5,4519.5 L536.5,4519.5 L536.5,4432 L536.5,4519.5 L623.5,4519.5 L623.5,4605.5 L536.5,4605.5 L536.5,4693.5 L449.5,4693.5 L449.5,4780.5 L361.5,4780.5 L361.5,4867.5 L275.5,4867.5 L275.5,4954.5 L187.5,4954.5 L187.5,4867.5 L275.5,4867.5 L275.5,4780.5 L361.5,4780.5 L361.5,4693.5 L449.5,4693.5 L449.5,4605.5 L536.5,4605.5 L536.5,4519.5 L449.5,4519.5 L449.5,4432 L449.5,4519.5 L536.5,4519.5 L536.5,4605.5 L449.5,4605.5 L449.5,4693.5 L361.5,4693.5 L361.5,4780.5 L275.5,4780.5 L275.5,4867.5 L187.5,4867.5 L187.5,4780.5 L275.5,4780.5 L275.5,4693.5 L361.5,4693.5 L361.5,4605.5 L449.5,4605.5 L449.5,4519.5 L361.5,4519.5 L361.5,4432 L361.5,4519.5 L449.5,4519.5 L449.5,4605.5 L361.5,4605.5 L361.5,4693.5 L275.5,4693.5 L275.5,4780.5 L187.5,4780.5 L187.5,4693.5 L275.5,4693.5 L275.5,4605.5 L187.5,4605.5 L187.5,4519.5 L186,4519.5 L187.5,4519.5 L187.5,4432 L187.5,4519.5 L275.5,4519.5 L275.5,4605.5 L187.5,4605.5 L187.5,4519.5 L275.5,4519.5 L275.5,4605.5 L361.5,4605.5 L361.5,4519.5 L275.5,4519.5 L275.5,4432 L275.5,4519.5 L361.5,4519.5 L361.5,4605.5 L275.5,4605.5 L275.5,4693.5 L187.5,4693.5 L187.5,4605.5 L186,4605.5 L187.5,4605.5 L187.5,4693.5 L186,4693.5 L187.5,4693.5 L187.5,4780.5 L186,4780.5 L187.5,4780.5 L187.5,4867.5 L186,4867.5 L187.5,4867.5 L187.5,4954.5 L186,4954.5 L187.5,4954.5 L187.5,5042.5 L186,5042.5 L187.5,5042.5 L187.5,5128.5 L186,5128.5 L187.5,5128.5 L187.5,5216.5 L186,5216.5 L187.5,5216.5 L187.5,5217 L187.5,5216.5 L275.5,5216.5 Z M973,4431.5 L186,4431.5 L973,4431.5 Z M972.5,3908.5 L972.5,3995.5 L884.5,3995.5 L884.5,4082.5 L798.5,4082.5 L798.5,4169.5 L884.5,4169.5 L884.5,4257.5 L972.5,4257.5 L972.5,4169.5 L973,4169.5 L972.5,4169.5 L972.5,4257.5 L973,4257.5 L972.5,4257.5 L972.5,4343.5 L973,4343.5 L972.5,4343.5 L972.5,4431 L972.5,4343.5 L884.5,4343.5 L884.5,4431 L884.5,4343.5 L972.5,4343.5 L972.5,4257.5 L884.5,4257.5 L884.5,4169.5 L972.5,4169.5 L972.5,4082.5 L973,4082.5 L972.5,4082.5 L972.5,4169.5 L884.5,4169.5 L884.5,4082.5 L972.5,4082.5 L972.5,3995.5 L973,3995.5 L972.5,3995.5 L972.5,4082.5 L884.5,4082.5 L884.5,4169.5 L798.5,4169.5 L798.5,4082.5 L710.5,4082.5 L710.5,3995.5 L798.5,3995.5 L798.5,3908.5 L884.5,3908.5 L884.5,3868 L884.5,3908.5 L798.5,3908.5 L798.5,3995.5 L710.5,3995.5 L710.5,3908.5 L798.5,3908.5 L798.5,3868 L798.5,3908.5 L710.5,3908.5 L710.5,3995.5 L623.5,3995.5 L623.5,3908.5 L536.5,3908.5 L536.5,3868 L536.5,3908.5 L623.5,3908.5 L623.5,3868 L623.5,3908.5 L710.5,3908.5 L710.5,3868 L710.5,3908.5 L623.5,3908.5 L623.5,3995.5 L710.5,3995.5 L710.5,4082.5 L798.5,4082.5 L798.5,3995.5 L884.5,3995.5 L884.5,3908.5 L972.5,3908.5 L972.5,3868 L972.5,3908.5 L884.5,3908.5 L884.5,3995.5 L798.5,3995.5 L798.5,4082.5 L884.5,4082.5 L884.5,3995.5 L972.5,3995.5 L972.5,3908.5 L973,3908.5 L972.5,3908.5 Z M536.5,3908.5 L536.5,3995.5 L623.5,3995.5 L623.5,4082.5 L710.5,4082.5 L710.5,4169.5 L798.5,4169.5 L798.5,4257.5 L884.5,4257.5 L884.5,4343.5 L798.5,4343.5 L798.5,4431 L798.5,4343.5 L884.5,4343.5 L884.5,4257.5 L798.5,4257.5 L798.5,4169.5 L710.5,4169.5 L710.5,4082.5 L623.5,4082.5 L623.5,3995.5 L536.5,3995.5 L536.5,3908.5 L449.5,3908.5 L449.5,3868 L449.5,3908.5 L536.5,3908.5 Z M449.5,3908.5 L449.5,3995.5 L536.5,3995.5 L536.5,4082.5 L623.5,4082.5 L623.5,4169.5 L710.5,4169.5 L710.5,4257.5 L798.5,4257.5 L798.5,4343.5 L710.5,4343.5 L710.5,4431 L710.5,4343.5 L798.5,4343.5 L798.5,4257.5 L710.5,4257.5 L710.5,4169.5 L623.5,4169.5 L623.5,4082.5 L536.5,4082.5 L536.5,3995.5 L449.5,3995.5 L449.5,3908.5 L361.5,3908.5 L361.5,3868 L361.5,3908.5 L449.5,3908.5 Z M361.5,3908.5 L361.5,3995.5 L449.5,3995.5 L449.5,4082.5 L536.5,4082.5 L536.5,4169.5 L623.5,4169.5 L623.5,4257.5 L710.5,4257.5 L710.5,4343.5 L623.5,4343.5 L623.5,4431 L623.5,4343.5 L710.5,4343.5 L710.5,4257.5 L623.5,4257.5 L623.5,4169.5 L536.5,4169.5 L536.5,4082.5 L449.5,4082.5 L449.5,3995.5 L361.5,3995.5 L361.5,3908.5 L275.5,3908.5 L275.5,3868 L275.5,3908.5 L361.5,3908.5 Z M275.5,3908.5 L275.5,3995.5 L361.5,3995.5 L361.5,4082.5 L449.5,4082.5 L449.5,4169.5 L536.5,4169.5 L536.5,4257.5 L623.5,4257.5 L623.5,4343.5 L536.5,4343.5 L536.5,4431 L536.5,4343.5 L623.5,4343.5 L623.5,4257.5 L536.5,4257.5 L536.5,4169.5 L449.5,4169.5 L449.5,4082.5 L361.5,4082.5 L361.5,3995.5 L275.5,3995.5 L275.5,3908.5 L187.5,3908.5 L187.5,3995.5 L275.5,3995.5 L275.5,4082.5 L361.5,4082.5 L361.5,4169.5 L449.5,4169.5 L449.5,4257.5 L536.5,4257.5 L536.5,4343.5 L449.5,4343.5 L449.5,4431 L449.5,4343.5 L536.5,4343.5 L536.5,4257.5 L449.5,4257.5 L449.5,4169.5 L361.5,4169.5 L361.5,4082.5 L275.5,4082.5 L275.5,3995.5 L187.5,3995.5 L187.5,4082.5 L275.5,4082.5 L275.5,4169.5 L361.5,4169.5 L361.5,4257.5 L449.5,4257.5 L449.5,4343.5 L361.5,4343.5 L361.5,4431 L361.5,4343.5 L449.5,4343.5 L449.5,4257.5 L361.5,4257.5 L361.5,4169.5 L275.5,4169.5 L275.5,4082.5 L187.5,4082.5 L187.5,4169.5 L275.5,4169.5 L275.5,4257.5 L361.5,4257.5 L361.5,4343.5 L275.5,4343.5 L275.5,4431 L275.5,4343.5 L361.5,4343.5 L361.5,4257.5 L275.5,4257.5 L275.5,4169.5 L187.5,4169.5 L187.5,4257.5 L186,4257.5 L187.5,4257.5 L187.5,4169.5 L186,4169.5 L187.5,4169.5 L187.5,4082.5 L186,4082.5 L187.5,4082.5 L187.5,3995.5 L186,3995.5 L187.5,3995.5 L187.5,3908.5 L186,3908.5 L187.5,3908.5 L187.5,3868 L187.5,3908.5 L275.5,3908.5 Z M275.5,4257.5 L275.5,4343.5 L187.5,4343.5 L187.5,4431 L187.5,4343.5 L186,4343.5 L187.5,4343.5 L187.5,4257.5 L275.5,4257.5 L275.5,4343.5 L187.5,4343.5 L187.5,4257.5 L275.5,4257.5 Z M1061.5,5216.5 L973,5216.5 L1061.5,5216.5 L1061.5,5128.5 L1147.5,5128.5 L1147.5,5042.5 L1235.5,5042.5 L1235.5,4954.5 L1322.5,4954.5 L1322.5,4867.5 L1409.5,4867.5 L1409.5,4954.5 L1322.5,4954.5 L1322.5,5042.5 L1235.5,5042.5 L1235.5,5128.5 L1147.5,5128.5 L1147.5,5216.5 L1061.5,5216.5 L1061.5,5217 L1061.5,5216.5 L1147.5,5216.5 L1147.5,5128.5 L1235.5,5128.5 L1235.5,5042.5 L1322.5,5042.5 L1322.5,5128.5 L1235.5,5128.5 L1235.5,5216.5 L1147.5,5216.5 L1147.5,5217 L1147.5,5216.5 L1235.5,5216.5 L1235.5,5128.5 L1322.5,5128.5 L1322.5,5042.5 L1409.5,5042.5 L1409.5,5128.5 L1322.5,5128.5 L1322.5,5216.5 L1235.5,5216.5 L1235.5,5217 L1235.5,5216.5 L1322.5,5216.5 L1322.5,5217 L1322.5,5216.5 L1409.5,5216.5 L1409.5,5217 L1409.5,5216.5 L1441,5216.5 L1409.5,5216.5 L1409.5,5128.5 L1441,5128.5 L1409.5,5128.5 L1409.5,5216.5 L1322.5,5216.5 L1322.5,5128.5 L1409.5,5128.5 L1409.5,5042.5 L1441,5042.5 L1409.5,5042.5 L1409.5,4954.5 L1441,4954.5 L1409.5,4954.5 L1409.5,5042.5 L1322.5,5042.5 L1322.5,4954.5 L1409.5,4954.5 L1409.5,4867.5 L1441,4867.5 L1409.5,4867.5 L1409.5,4780.5 L1441,4780.5 L1409.5,4780.5 L1409.5,4693.5 L1441,4693.5 L1409.5,4693.5 L1409.5,4605.5 L1441,4605.5 L1409.5,4605.5 L1409.5,4693.5 L1322.5,4693.5 L1322.5,4605.5 L1235.5,4605.5 L1235.5,4519.5 L1322.5,4519.5 L1322.5,4432 L1322.5,4519.5 L1235.5,4519.5 L1235.5,4605.5 L1322.5,4605.5 L1322.5,4519.5 L1409.5,4519.5 L1409.5,4605.5 L1322.5,4605.5 L1322.5,4519.5 L1409.5,4519.5 L1409.5,4432 L1409.5,4519.5 L1441,4519.5 L1409.5,4519.5 L1409.5,4605.5 L1322.5,4605.5 L1322.5,4693.5 L1409.5,4693.5 L1409.5,4780.5 L1322.5,4780.5 L1322.5,4693.5 L1235.5,4693.5 L1235.5,4605.5 L1147.5,4605.5 L1147.5,4519.5 L1235.5,4519.5 L1235.5,4432 L1235.5,4519.5 L1147.5,4519.5 L1147.5,4605.5 L1235.5,4605.5 L1235.5,4693.5 L1322.5,4693.5 L1322.5,4780.5 L1409.5,4780.5 L1409.5,4867.5 L1322.5,4867.5 L1322.5,4780.5 L1235.5,4780.5 L1235.5,4867.5 L1147.5,4867.5 L1147.5,4954.5 L1061.5,4954.5 L1061.5,5042.5 L973,5042.5 L1061.5,5042.5 L1061.5,4954.5 L1147.5,4954.5 L1147.5,4867.5 L1235.5,4867.5 L1235.5,4780.5 L1147.5,4780.5 L1147.5,4867.5 L1061.5,4867.5 L1061.5,4954.5 L973,4954.5 L1061.5,4954.5 L1061.5,4867.5 L1147.5,4867.5 L1147.5,4780.5 L1235.5,4780.5 L1235.5,4693.5 L1147.5,4693.5 L1147.5,4605.5 L1061.5,4605.5 L1061.5,4693.5 L973,4693.5 L1061.5,4693.5 L1061.5,4605.5 L973,4605.5 L1061.5,4605.5 L1061.5,4519.5 L973,4519.5 L1061.5,4519.5 L1061.5,4432 L1061.5,4519.5 L1147.5,4519.5 L1147.5,4432 L1147.5,4519.5 L1061.5,4519.5 L1061.5,4605.5 L1147.5,4605.5 L1147.5,4693.5 L1061.5,4693.5 L1061.5,4780.5 L973,4780.5 L1061.5,4780.5 L1061.5,4693.5 L1147.5,4693.5 L1147.5,4780.5 L1061.5,4780.5 L1061.5,4867.5 L973,4867.5 L1061.5,4867.5 L1061.5,4780.5 L1147.5,4780.5 L1147.5,4693.5 L1235.5,4693.5 L1235.5,4780.5 L1322.5,4780.5 L1322.5,4867.5 L1235.5,4867.5 L1235.5,4954.5 L1147.5,4954.5 L1147.5,5042.5 L1061.5,5042.5 L1061.5,5128.5 L973,5128.5 L1061.5,5128.5 L1061.5,5042.5 L1147.5,5042.5 L1147.5,4954.5 L1235.5,4954.5 L1235.5,4867.5 L1322.5,4867.5 L1322.5,4954.5 L1235.5,4954.5 L1235.5,5042.5 L1147.5,5042.5 L1147.5,5128.5 L1061.5,5128.5 L1061.5,5216.5 Z M973,4431.5 L1441,4431.5 L973,4431.5 Z M1061.5,3908.5 L973,3908.5 L1061.5,3908.5 L1061.5,3995.5 L1147.5,3995.5 L1147.5,4082.5 L1235.5,4082.5 L1235.5,3995.5 L1147.5,3995.5 L1147.5,3908.5 L1061.5,3908.5 L1061.5,3868 L1061.5,3908.5 L1147.5,3908.5 L1147.5,3995.5 L1235.5,3995.5 L1235.5,4082.5 L1322.5,4082.5 L1322.5,3995.5 L1409.5,3995.5 L1409.5,4082.5 L1322.5,4082.5 L1322.5,4169.5 L1235.5,4169.5 L1235.5,4257.5 L1147.5,4257.5 L1147.5,4343.5 L1235.5,4343.5 L1235.5,4431 L1235.5,4343.5 L1147.5,4343.5 L1147.5,4257.5 L1235.5,4257.5 L1235.5,4169.5 L1322.5,4169.5 L1322.5,4082.5 L1409.5,4082.5 L1409.5,4169.5 L1322.5,4169.5 L1322.5,4257.5 L1409.5,4257.5 L1409.5,4343.5 L1439,4343.5 L1409.5,4343.5 L1409.5,4431 L1409.5,4343.5 L1322.5,4343.5 L1322.5,4257.5 L1409.5,4257.5 L1409.5,4343.5 L1322.5,4343.5 L1322.5,4257.5 L1235.5,4257.5 L1235.5,4343.5 L1322.5,4343.5 L1322.5,4431 L1322.5,4343.5 L1235.5,4343.5 L1235.5,4257.5 L1322.5,4257.5 L1322.5,4169.5 L1409.5,4169.5 L1409.5,4257.5 L1439,4257.5 L1409.5,4257.5 L1409.5,4169.5 L1439,4169.5 L1409.5,4169.5 L1409.5,4082.5 L1439,4082.5 L1409.5,4082.5 L1409.5,3995.5 L1439,3995.5 L1409.5,3995.5 L1409.5,3908.5 L1322.5,3908.5 L1322.5,3868 L1322.5,3908.5 L1409.5,3908.5 L1409.5,3995.5 L1322.5,3995.5 L1322.5,3908.5 L1235.5,3908.5 L1235.5,3868 L1235.5,3908.5 L1322.5,3908.5 L1322.5,3995.5 L1235.5,3995.5 L1235.5,3908.5 L1147.5,3908.5 L1147.5,3868 L1147.5,3908.5 L1235.5,3908.5 L1235.5,3995.5 L1322.5,3995.5 L1322.5,4082.5 L1235.5,4082.5 L1235.5,4169.5 L1147.5,4169.5 L1147.5,4082.5 L1061.5,4082.5 L1061.5,3995.5 L973,3995.5 L1061.5,3995.5 L1061.5,4082.5 L1147.5,4082.5 L1147.5,4169.5 L1061.5,4169.5 L1061.5,4082.5 L973,4082.5 L1061.5,4082.5 L1061.5,4169.5 L1147.5,4169.5 L1147.5,4257.5 L1061.5,4257.5 L1061.5,4343.5 L1147.5,4343.5 L1147.5,4431 L1147.5,4343.5 L1061.5,4343.5 L1061.5,4431 L1061.5,4343.5 L973,4343.5 L1061.5,4343.5 L1061.5,4257.5 L973,4257.5 L1061.5,4257.5 L1061.5,4169.5 L973,4169.5 L1061.5,4169.5 L1061.5,4257.5 L1147.5,4257.5 L1147.5,4169.5 L1235.5,4169.5 L1235.5,4082.5 L1147.5,4082.5 L1147.5,3995.5 L1061.5,3995.5 L1061.5,3908.5 Z M1409.5,3908.5 L1409.5,3868 L1409.5,3908.5 L1439,3908.5 L1409.5,3908.5 Z" id="tech-grid"></path>
        </g>
    </g>
</svg>