<svg width="36" height="33" viewBox="0 0 36 33" xmlns="http://www.w3.org/2000/svg"><g stroke="#F04E30" fill="none" fill-rule="evenodd"><path d="M17.82 9.324h-5.858s.203 5.934.78 8.613c.589 2.746 2.273 5.087 5.078 5.087 2.806 0 4.49-2.34 5.08-5.087.575-2.679.778-8.613.778-8.613H17.82z" stroke-width=".999"/><path d="M17.854 23.275c6.003-1.382 8.435-7.242 9.389-10.98a.823.823 0 0 0-.808-1.027c-.985.006-2.415.014-3.16.014M17.854 23.275c-6.003-1.382-8.435-7.242-9.387-10.98a.821.821 0 0 1 .806-1.027c.984.006 2.417.014 3.16.014"/><path d="M17.854 23.5v8.611M12.03 32.111h11.648" stroke-width=".933"/><path d="M14.598 11.8l.254 3.74M4.832 15.87H0M17.854 2.848V.23M24.365 4.591L26.78.408M30.876 15.87h4.832"/></g></svg>