<?xml version="1.0" encoding="UTF-8"?>
<svg width="180px" height="90px" viewBox="0 0 180 90" version="1.1" xmlns="http://www.w3.org/2000/svg" xmlns:xlink="http://www.w3.org/1999/xlink">
    <!-- Generator: Sketch 57.1 (83088) - https://sketch.com -->
    <title>chinauff-logo</title>
    <desc>Created with Sketch.</desc>
    <g id="chinauff-logo" stroke="none" stroke-width="1" fill="none" fill-rule="evenodd">
        <g transform="translate(0.000000, 1.000000)" fill-rule="nonzero">
            <path d="M85.2866005,0.0288087401 C88.8294515,-0.0732108337 92.7440831,0.116254088 96.6514248,0.276570556 C101.484573,0.473322588 106.317722,0.73565863 111.129001,1.24575649 C119.892057,2.06054696 128.56489,3.6554635 137.044299,6.01152793 C139.053503,6.57156318 141.005945,7.31809529 142.876152,8.24138429 C144.287448,8.91371899 145.474605,9.97898095 146.295076,11.3092586 C148.008183,14.1439452 149.801478,16.9349092 151.733279,19.6311408 C154.86176,24.1048064 158.935687,27.8364028 163.66671,30.5618092 C167.541596,32.6998042 171.095199,35.3738311 174.222364,38.5047617 C175.505513,39.8022744 176.642248,41.2367161 177.612129,42.7822965 C180.238022,46.8764661 180.729225,51.9847129 178.931586,56.5039289 C177.682483,59.7230987 175.903522,62.7107423 173.668338,65.3431962 C171.365916,68.0087348 168.639367,70.2763233 165.598511,72.0546266 C160.47098,75.1657845 154.969448,77.6143556 149.225583,79.341739 C143.13268,81.2624091 136.910948,82.7478626 130.607391,83.7868773 C126.461915,84.5010145 122.29457,85.0742671 118.105355,85.506636 C114.091096,85.9195723 110.062258,86.2207729 106.018839,86.4102377 C100.711853,86.6652868 95.412156,86.8328903 90.1124592,86.6652868 C87.0580259,86.5705543 84.0108827,86.4903961 80.9710289,86.300931 C76.8012539,86.0434531 72.6436285,85.6766685 68.4981527,85.2005773 C61.2902009,84.3913198 54.1430262,83.1109043 47.1025408,81.3675561 C39.0326406,79.4502742 31.2208818,76.5757719 23.8334459,72.8051993 C18.1046515,69.9219111 12.9101864,66.0823411 8.47380219,61.4518782 C5.36384391,58.2177178 2.97168952,54.3638794 1.45370871,50.1422799 C-0.973800238,43.1830878 -0.310426922,36.4643702 3.0647582,29.956979 C5.7086677,25.108553 9.36301138,20.884009 13.7807887,17.568888 C19.9379683,12.8400478 26.8653086,9.20879583 34.2578839,6.83497161 C40.2441635,4.87167307 46.3772492,3.387705 52.5990624,2.39712022 C57.3082842,1.62468633 62.0758241,1.07815291 66.7996254,0.691935957 C69.4385392,0.473322588 72.0920322,0.38587724 74.7382359,0.240134996 C78.113421,0.0288087401 81.4958958,0.0288087401 85.2866005,0.0288087401 Z" id="Path" fill="#FFFFFF"></path>
            <path d="M72.7468033,49.2069961 C73.3837701,48.5259834 73.7354588,47.6262973 73.7293729,46.6933959 C73.6565901,44.3109401 73.7293729,41.9284843 73.7293729,39.5387425 C73.7293729,38.7081616 73.7293729,38.700876 74.5227071,38.6935901 C75.9783658,38.6935901 77.4340247,38.6935901 78.8896835,38.6935901 C79.6175129,38.6935901 79.6175129,38.6935901 79.6175129,39.3784552 C79.6175129,42.5987776 79.6175129,45.814243 79.6175129,49.0248511 C79.6118394,49.5902751 79.4369037,50.1410027 79.1153108,50.6058693 C78.3874813,51.6841675 77.6596518,52.7916086 77.019162,53.8626209 C76.4296202,54.8170603 76.3786721,54.467342 77.0773883,55.4654965 C78.329255,57.2578027 79.595678,59.0355371 80.8548229,60.8205578 L81.3861386,61.600138 C81.1823464,61.8551408 80.9712758,61.7677113 80.7893185,61.7677113 C79.071641,61.7677113 77.3466852,61.7677113 75.6290077,61.7677113 C75.198315,61.8088537 74.7813447,61.602974 74.5518201,61.2358482 C74.1951839,60.7185564 73.8239909,60.2304081 73.3800148,59.6694015 C72.932006,60.1663701 72.5436166,60.7140991 72.222766,61.3014204 C72.0480871,61.5491373 71.8879644,61.7677113 71.4949365,61.7604257 C69.3478397,61.7604257 67.2007429,61.7604257 65.0390896,61.7604257 C65.0712291,61.4179848 65.2233407,61.0979625 65.4685089,60.8569866 C66.6039228,59.0282515 67.7538932,57.2140879 68.9038639,55.3926384 C69.4642926,54.4964853 69.4642926,54.4964853 68.8092459,53.6149037 C68.0814167,52.6094636 67.3535872,51.5821661 66.5238616,50.6131552 C65.9560497,49.9164347 65.6657032,49.034117 65.7086925,48.1359839 C65.7086925,44.7553739 65.7086925,41.3820494 65.7086925,38.0014394 C65.7086925,37.7682937 65.7086925,37.5351483 65.7086925,37.2728595 C65.7086925,37.0105708 65.570405,36.7774254 65.2356034,36.7919969 C65.0390896,36.7919969 64.8425755,36.7919969 64.6387833,36.7919969 C64.3112601,36.7919969 64.1584158,36.6608525 64.1584158,36.3257057 C64.1584158,34.8029741 64.1584158,33.2729566 64.1584158,31.750225 C64.1584158,31.3932208 64.3476515,31.2985053 64.6533398,31.3130771 C64.9590284,31.3276486 65.0536461,31.3130771 65.2501602,31.3130771 C65.5995183,31.3130771 65.7086925,31.1455036 65.7014144,30.8249286 C65.7014144,30.2274931 65.7014144,29.6300579 65.7014144,29.0326224 C65.7014144,28.6610467 65.8251454,28.5080449 66.2254514,28.5148515 C67.8412328,28.5148515 69.4618665,28.5148515 71.0873521,28.5148515 C71.5240498,28.5148515 71.6696157,28.69019 71.6550592,29.1054804 C71.6405024,29.5207709 71.6550592,30.1619209 71.6550592,30.6937842 C71.6550592,31.2256475 71.7642334,31.3567919 72.2664358,31.3276486 C72.9942653,31.3276486 73.7220948,31.3276486 74.449924,31.3276486 C75.905583,31.3276486 77.4267464,31.3276486 78.9187967,31.3276486 C79.4282772,31.3276486 79.6466262,31.4806504 79.6466262,32.0052278 C79.6466262,33.3239573 79.6466262,34.6499724 79.6466262,35.9759875 C79.6466262,36.7992828 79.6466262,36.8138543 78.824179,36.8138543 L72.0553652,36.8138543 C71.9547008,36.800877 71.8538501,36.8364362 71.783531,36.9097009 C71.7132122,36.9829655 71.6817504,37.0852611 71.6987287,37.18543 C71.6987287,37.4112898 71.6987287,37.6444352 71.6987287,37.9140098 C71.6987287,40.8283287 71.6987287,43.7426479 71.6987287,46.656967 C71.6526265,47.6205726 72.0366257,48.5548663 72.7468033,49.2069961 L72.7468033,49.2069961 Z" id="Path" fill="#211714"></path>
            <path d="M126.190637,39.2079208 L108.841685,39.2079208 C108.118812,39.2079208 108.118812,39.2079208 108.118812,38.4511659 C108.118812,36.0452566 108.118812,33.6464866 108.118812,31.2405775 C108.118812,29.6699542 108.841685,28.9346169 110.497064,28.9274779 C112.7958,28.9274779 115.094536,28.9274779 117.400501,28.9274779 C118.007715,28.9274779 118.708901,29.077401 118.752274,28.1207485 C118.752274,27.9137119 118.976364,27.9207921 119.135396,27.9207921 L124.658146,27.9207921 C125.012354,27.9207921 125.106327,28.1064702 125.106327,28.4063164 C125.106327,29.0274265 125.106327,29.6413973 125.106327,30.2625074 C125.145047,30.6936719 124.983633,31.1189061 124.667459,31.4186733 C124.351286,31.7184404 123.914492,31.8603734 123.479863,31.8045739 C121.535335,31.8045739 119.598035,31.8045739 117.660736,31.8045739 C116.771602,31.8045739 115.882468,31.8045739 114.993334,31.8045739 C114.480094,31.8045739 114.407807,32.0187498 114.400578,32.4471015 C114.39335,32.8754533 114.581297,32.9896806 114.986105,32.9896806 L124.253337,32.9896806 C125.099099,32.9896806 125.113556,32.9896806 125.106327,33.8392449 C125.106327,35.5812089 125.315961,35.2670843 123.660581,35.2670843 C120.769089,35.2670843 117.935427,35.2670843 115.080079,35.2670843 C114.407807,35.2670843 114.357206,35.3241978 114.357206,35.8881944 C114.357206,36.2665718 114.509009,36.4236342 114.884903,36.4022166 C115.087308,36.4022166 115.282483,36.4022166 115.477659,36.4022166 L137.27228,36.4022166 C137.66986,36.4022166 138.089127,36.4736084 138.045754,35.8453593 C138.002382,35.2171099 138.045754,35.2742234 137.322881,35.2742234 L129.125501,35.2742234 C127.679755,35.2742234 127.831559,35.4598426 127.817101,33.9748897 L127.817101,33.7821314 C127.817101,32.9754023 127.817101,32.968263 128.612262,32.968263 L137.286738,32.968263 C138.009611,32.968263 138.154185,32.8112006 138.045754,32.132977 C138.044759,32.0358557 138.001202,31.943925 137.926338,31.880942 C137.851474,31.8179588 137.75265,31.7901033 137.655403,31.8045739 L128.583346,31.8045739 C127.860474,31.8045739 127.860474,31.8045739 127.817101,31.0549582 C127.817101,30.5337971 127.817101,30.0126356 127.817101,29.4986135 C127.817101,28.9845913 127.997819,28.9274779 128.409857,28.9346169 L141.623976,28.9346169 C142.018832,28.9130858 142.414852,28.9418793 142.802259,29.0202872 C143.683771,29.1701043 144.334857,29.9148132 144.356436,30.7979472 C144.356436,33.4251716 144.356436,36.0523959 144.356436,38.6510635 C144.356436,39.0080232 144.262462,39.2007815 143.864882,39.1793639 C143.633563,39.1793639 143.402243,39.1793639 143.142009,39.1793639 L126.190637,39.2079208 Z" id="Path" fill="#211714"></path>
            <path d="M100.11997,55.2094646 L104.554455,61.5771483 C104.374484,61.8726326 104.122525,61.761826 103.920958,61.761826 C102.157242,61.761826 100.386327,61.761826 98.6226112,61.761826 C98.2006091,61.8030566 97.7926382,61.5937363 97.5715804,61.2225673 C95.483917,58.1864674 93.3674579,55.1577548 91.2581977,52.1290421 C91.1372723,51.9726142 91.035714,51.8014051 90.9558465,51.6193319 C90.8660224,51.4169681 90.8698122,51.1838496 90.9661641,50.9846729 C91.0625163,50.7854964 91.2411782,50.6414548 91.4525666,50.5925243 C91.735157,50.5083684 92.0304319,50.478319 92.3236261,50.503879 L103.40984,50.503879 C103.604208,50.503879 103.798577,50.503879 103.992946,50.503879 C104.092483,50.4962869 104.190047,50.5351697 104.258497,50.6097112 C104.326948,50.6842525 104.358983,50.7864992 104.345689,50.8880086 C104.345689,52.1930636 104.345689,53.5005811 104.345689,54.8105609 C104.345689,55.1946902 104.036139,55.1799161 103.776981,55.1799161 L100.11997,55.1799161 L100.11997,55.2094646 Z" id="Path" fill="#211714"></path>
            <path d="M64.0890409,56.421084 L38.4553729,56.421084 C37.2742994,56.421084 37.0920351,56.2169101 37.0774537,54.9626973 C37.0774537,54.6637281 37.0774537,54.3647586 37.0774537,54.0657894 C37.0774537,52.8990798 37.0774537,53.0084588 38.1783309,53.0084588 L60.8593153,53.0084588 C62.2007814,53.0084588 62.0403888,53.1397136 62.0476795,51.8636253 C62.0476795,50.9958849 62.0476795,50.1354368 62.0476795,49.2749885 C62.0476795,48.013484 62.193491,48.1447388 60.954093,48.1447388 L38.6667994,48.1447388 C37.0628726,48.1447388 37.0847444,48.1447388 37.0701633,46.4894695 C37.0564062,45.9946038 37.2619437,45.5189399 37.6317298,45.1898671 C38.001516,44.8607946 38.4977688,44.7119358 38.9875849,44.7831569 L61.7706374,44.7831569 C62.003936,44.7831569 62.2372345,44.7831569 62.4996952,44.7831569 C62.9735827,44.8342005 63.1412659,44.6373183 63.1339753,44.1633426 C63.1339753,42.8070428 63.1339753,41.443451 63.1339753,40.0871513 C63.1339753,39.2923303 63.1339753,39.2850386 62.2736873,39.2777465 C60.8155718,39.2777465 59.3574566,39.2777465 57.8993411,39.2777465 C57.6292987,39.3286182 57.3500362,39.2737993 57.1192495,39.1246159 L62.5798915,29.9003191 C62.4267895,29.8055239 62.3757554,29.7471885 62.3174308,29.7471885 C60.1302579,29.7471885 57.8774694,29.7471885 55.6538436,29.7471885 C55.2422116,29.7292175 54.8729662,29.998635 54.7643932,30.3961705 C54.6054633,30.9295171 54.0603774,31.24834 53.5177045,31.1253641 C53.1535043,31.1034686 52.7883183,31.1034686 52.4241181,31.1253641 C50.4702434,31.1253641 48.5090783,31.1253641 46.5916567,31.1253641 C46.0958974,31.1253641 45.8625989,31.001401 45.8625989,30.46909 C45.8625989,29.9367787 45.8625989,29.5357222 45.8625989,29.0763303 C45.8625989,28.6169385 45.7824026,28.5148515 45.3668397,28.5148515 L38.484535,28.5148515 C38.0835535,28.5148515 37.9669041,28.6898579 37.9741948,29.0544545 C37.9741948,29.5867658 37.9741948,30.1190771 37.9741948,30.6440964 C37.9741948,30.9795252 37.8575456,31.1399478 37.5148884,31.118072 C37.1722314,31.0961962 37.0482916,31.118072 36.7858306,31.118072 L26.1780414,31.118072 C25.4489837,31.118072 25.4052403,31.118072 25.3979497,31.8472656 C25.3979497,32.9702233 25.3979497,34.1004733 25.3979497,35.230723 C25.3979497,36.3609727 25.2667193,36.2588857 26.3894681,36.2588857 L36.8368648,36.2588857 C37.0410009,36.2588857 37.2378466,36.2588857 37.434692,36.2588857 C37.7992208,36.2588857 37.9960665,36.3463889 37.9814854,36.7547372 C37.9814854,37.4474711 37.9814854,38.1474968 37.9814854,38.8402305 C37.9814854,39.1829513 37.8356739,39.3214982 37.5075977,39.3069144 C37.1795218,39.2923303 37.0410009,39.3069144 36.7785402,39.3069144 L24.8657376,39.3069144 C24.5449522,39.3069144 24.3845595,39.4381692 24.3845595,39.78089 C24.3845595,41.3024735 24.3845595,42.826488 24.3845595,44.3529328 C24.3845595,44.7029457 24.5449522,44.8269085 24.8657376,44.8123247 C25.186523,44.7977409 25.4635649,44.8123247 25.7624785,44.8123247 L28.6276751,44.8123247 C28.5148679,45.0908198 28.3188063,45.3276653 28.0663009,45.4904746 C27.0164577,46.4603019 25.9666147,47.430129 24.8948999,48.3634968 C24.5391487,48.658667 24.3443938,49.1050636 24.3699784,49.566666 C24.3699784,51.9219607 24.3699784,54.2772554 24.3699784,56.6325503 C24.3699784,56.8148485 24.2824914,57.0263148 24.5522428,57.2377808 L29.8087486,52.4396879 C29.8087486,54.3939264 29.8087486,56.0856553 29.8087486,57.7773838 C29.7861044,58.8529041 30.2068481,59.8903739 30.9721938,60.6462075 C31.7375396,61.4020411 32.7800728,61.8096614 33.8550188,61.773364 C35.1089979,61.7004446 36.3702677,61.773364 37.6315375,61.773364 C45.0582053,61.773364 52.4873031,61.773364 59.9188311,61.773364 C60.4437658,61.8342343 60.9543844,61.5760085 61.2165537,61.1170899 C62.0695512,59.7753739 62.9881637,58.4774095 63.8703237,57.1502776 C64.0161352,56.9606874 64.2858866,56.7783889 64.0890409,56.421084 Z M46.3000336,36.2734695 L51.2357539,36.2734695 L49.5880837,39.0444047 C49.4621191,39.2440616 49.2315782,39.3522369 48.9975468,39.3214982 C48.100806,39.3214982 47.204065,39.3214982 46.3146146,39.3214982 C45.9719576,39.3214982 45.8334365,39.1829513 45.8334365,38.8475225 C45.8334365,38.118329 45.8334365,37.4547629 45.8334365,36.7547372 C45.8334365,36.4338922 45.9500859,36.2734695 46.3000336,36.2734695 Z" id="Shape" fill="#211714"></path>
            <path d="M143.259914,53.5736301 C137.80965,53.5736301 132.359386,53.5736301 126.901855,53.5736301 C126.603907,53.5736301 126.262357,53.710846 125.98621,53.4508581 C126.448143,52.7116993 127.29598,52.301648 128.166316,52.3964626 C133.253229,52.4397939 138.340143,52.3964626 143.427056,52.3964626 C144.306365,52.3964626 144.313632,52.3964626 144.313632,51.5515019 C144.313632,48.7638539 144.313632,45.9713913 144.313632,43.174114 C144.313632,41.7297369 143.58693,41.0075482 142.133526,41.0075482 L110.042371,41.0075482 C109.454724,40.9275689 108.863263,41.1253912 108.443855,41.5421946 C108.024447,41.958998 107.825388,42.5467849 107.905867,43.1307827 C107.905867,45.9545403 107.905867,48.7782976 107.905867,51.6020552 C107.905867,52.4036846 107.905867,52.4181282 108.72704,52.4181282 L117.055044,52.4181282 C117.287589,52.4181282 117.578269,52.2881343 117.730877,52.5625661 C117.24091,53.3308393 116.338652,53.7366038 115.434499,53.5952958 C113.058184,53.5375208 110.674602,53.5952958 108.298286,53.5952958 C107.571584,53.5952958 107.535249,53.5952958 107.527982,54.3608158 C107.520715,55.1263356 107.527982,55.675199 107.527982,56.3323907 C107.527982,56.9895822 107.527982,57.0184698 108.254684,57.0545792 C109.48281,57.0545792 110.703669,57.0545792 111.924529,57.0545792 L113.087252,57.0545792 L108.320087,61.5899238 C108.450894,61.828246 108.596234,61.7776927 108.712506,61.7776927 C111.328633,61.7776927 113.937493,61.7776927 116.546353,61.7776927 C116.941242,61.7830024 117.319518,61.6200136 117.585537,61.3299359 C118.922668,60.051662 120.274334,58.7950538 121.604198,57.51678 C121.892083,57.201042 122.301858,57.0223862 122.730586,57.0256918 C127.42508,57.0256918 132.119574,57.0256918 136.814069,57.0256918 C137.540771,57.0256918 137.598907,57.0834668 137.540771,57.7984335 C137.482634,58.5134003 137.4681,58.5567316 136.734131,58.5567316 L128.696808,58.5567316 C127.933771,58.5567316 127.926505,58.5567316 127.919237,59.2789203 C127.919237,59.8037105 127.919237,60.3309082 127.919237,60.8605134 C127.919237,61.7126957 127.919237,61.7199177 128.769479,61.7271397 C133.071554,61.7271397 137.366362,61.7271397 141.66117,61.7271397 C143.412522,61.7271397 144.335433,60.7882944 144.3427,59.040598 C144.3427,57.5962206 144.3427,56.0868465 144.3427,54.6063598 C144.364501,53.5014112 144.488041,53.5736301 143.259914,53.5736301 Z M137.446299,49.3416047 C134.985202,49.3416047 132.51926,49.3416047 130.048474,49.3416047 C129.590652,49.3416047 129.394442,49.2188328 129.416243,48.7349663 C129.438044,48.2511001 129.452579,48.1066622 130.142945,48.0994405 C131.392873,48.0994405 132.6428,48.0994405 133.892727,48.0994405 C135.142654,48.0994405 136.261775,48.0994405 137.446299,48.0994405 C137.911389,48.0994405 138.085797,48.2366562 138.07853,48.7133006 C138.071263,49.1899451 137.954991,49.3416047 137.439032,49.3416047 L137.446299,49.3416047 Z M129.452579,44.1924 C129.54705,43.9468558 129.750526,43.9829654 129.939469,43.9829654 L131.81436,43.9829654 C133.660182,43.9829654 135.498738,43.9829654 137.344561,43.9829654 C137.593579,43.9836649 137.824896,44.1110289 137.957537,44.3204727 C138.090179,44.5299166 138.105672,44.7922703 137.998593,45.015695 C137.88232,45.2973486 137.620708,45.2323516 137.409964,45.2323516 L133.776455,45.2323516 C132.562863,45.2323516 131.342003,45.2323516 130.142945,45.2323516 C129.488914,45.2179079 129.220034,44.7701508 129.452579,44.1924 L129.452579,44.1924 Z M122.141957,49.3416047 C120.957433,49.3416047 119.765642,49.3416047 118.573851,49.3416047 C117.38206,49.3416047 116.066729,49.3416047 114.809535,49.3416047 C114.308111,49.3416047 114.21364,49.1393921 114.206373,48.691635 C114.199106,48.2438781 114.380781,48.0777748 114.84587,48.0777748 C117.26821,48.0777748 119.712351,48.0777748 122.178292,48.0777748 C122.694251,48.0777748 122.759654,48.2944314 122.766921,48.7277446 C122.774188,49.1610578 122.614314,49.3488267 122.141957,49.3416047 Z M122.737853,45.008473 C122.621581,45.3045705 122.359968,45.2251296 122.141957,45.2251296 L118.573851,45.2251296 C117.352992,45.2251296 116.132133,45.2251296 114.940342,45.2251296 C114.687975,45.228149 114.452104,45.1008248 114.317277,44.8887965 C114.182449,44.6767683 114.167975,44.4104025 114.279043,44.185178 C114.380781,43.9468558 114.591525,43.9829654 114.780467,43.9757434 L116.749829,43.9757434 C118.530249,43.9757434 120.317936,43.9757434 122.098355,43.9757434 C122.344782,43.9813055 122.571572,44.1106273 122.700756,44.3192486 C122.829941,44.52787 122.843907,44.7873471 122.737853,45.008473 L122.737853,45.008473 Z" id="Shape" fill="#211714"></path>
            <path d="M104.525112,32.5084836 C104.525112,31.0496126 103.791512,30.3201769 102.324311,30.3201769 C100.651703,30.3201769 98.9864314,30.3201769 97.3211591,30.3201769 C96.2941193,30.3201769 96.2941193,30.3201769 96.2647752,29.2479067 C96.2647752,28.5184713 96.2647752,28.5184713 95.4651513,28.5184713 L90.8654789,28.5184713 C89.5743429,28.5184713 89.7210629,28.3944671 89.706391,29.5980357 C89.706391,30.3274714 89.706391,30.3274714 88.9727909,30.3274714 C87.1681349,30.3274714 85.3708148,30.3274714 83.5661588,30.3274714 C82.9952026,30.296889 82.4355219,30.4937652 82.0109269,30.874548 C81.5454052,31.3621766 81.3222565,32.0304953 81.4020388,32.698137 C81.4020388,36.8778027 81.4020388,41.0574683 81.4020388,45.2298396 L81.4020388,49.9055213 C81.4020388,52.5606668 81.4020388,55.2158123 81.4020388,57.8709575 C81.3651776,58.9135967 81.7635161,59.9249904 82.5026565,60.6654606 C83.2417969,61.4059311 84.2559523,61.809573 85.3047907,61.7807322 C87.4102228,61.7807322 89.5083191,61.7807322 91.6064151,61.7807322 C92.391367,61.7807322 92.3987031,61.7807322 92.3987031,60.9345868 C92.3987031,59.7383126 92.3987031,58.5420384 92.3987031,57.3530583 C92.3987031,56.4704412 92.3987031,56.4631471 91.533055,56.4558526 C90.498679,56.4558526 89.4643031,56.4558526 88.4299268,56.4558526 C87.696327,56.4558526 87.4175589,56.1786672 87.4102228,55.5148808 C87.4102228,53.4578725 87.4102228,51.4008643 87.4102228,49.343856 C87.4102228,48.9572553 87.5642789,48.811368 87.945751,48.8405455 C88.173167,48.8405455 88.4079188,48.8405455 88.6793508,48.8405455 L103.688808,48.8405455 C104.539784,48.8405455 104.554455,48.8405455 104.554455,48.0746382 C104.539784,42.890783 104.530002,37.7020647 104.525112,32.5084836 Z M97.0864073,43.8803839 L88.1878389,43.8803839 C87.4542389,43.8803839 87.4542389,43.8803839 87.4542389,43.1071821 C87.4542389,40.7219279 87.4542389,38.3293792 87.4542389,35.944125 C87.4542389,35.2146896 87.4542389,35.2146896 88.1878389,35.2146896 L97.7906633,35.2146896 C98.5756152,35.2146896 98.5976232,35.2146896 98.5902874,35.944125 C98.5902874,37.64371 98.7516794,37.3519357 97.1230872,37.4029963 C94.9589672,37.4029963 92.7875111,37.4029963 90.623391,37.4029963 C89.8457749,37.4029963 89.8384391,37.4029963 89.831103,38.1324316 C89.831103,39.1317585 89.831103,40.1237907 89.831103,41.1158231 C89.831103,41.6410167 90.0071671,41.8014926 90.5280231,41.7941982 C92.7948472,41.7941982 95.0616712,41.7941982 97.3284952,41.7941982 C97.5632473,41.7941982 97.7979994,41.7941982 98.0254154,41.7941982 C98.3995514,41.7941982 98.5462714,41.9109079 98.5756152,42.3048031 C98.6709834,43.8803839 98.6856553,43.8803839 97.0864073,43.8803839 Z" id="Shape" fill="#211714"></path>
        </g>
    </g>
</svg>