<?xml version="1.0" encoding="UTF-8"?>
<svg width="180px" height="90px" viewBox="0 0 180 90" version="1.1" xmlns="http://www.w3.org/2000/svg" xmlns:xlink="http://www.w3.org/1999/xlink">
    <!-- Generator: Sketch 57.1 (83088) - https://sketch.com -->
    <title>pingan-logo</title>
    <desc>Created with Sketch.</desc>
    <g id="pingan-logo" stroke="none" stroke-width="1" fill="none" fill-rule="evenodd">
        <g transform="translate(0.000000, 8.000000)" fill="#FFFFFF" fill-rule="nonzero">
            <path d="M0.0183673469,16.144898 C0.0183673469,13.9959184 3.26128013e-16,11.8469388 0.0183673469,9.69795918 C0.0367346939,6.41020408 1.67142857,4.79387755 4.97755102,4.79387755 C8.6877551,4.79387755 12.3979592,4.75714286 16.1265306,4.8122449 C17.2653061,4.83061224 17.6510204,4.48163265 17.6326531,3.3244898 C17.577551,-0.183673469 17.2836735,0.110204082 20.9571429,0.128571429 C24.5755102,0.146938776 24.2816327,-0.312244898 24.2265306,3.34285714 C24.2081633,4.51836735 24.6673469,4.8122449 25.7877551,4.79387755 C29.5897959,4.73877551 33.4102041,4.7755102 37.2122449,4.7755102 C40.0040816,4.7755102 41.7857143,6.41020408 41.8408163,9.16530612 C41.9142857,13.7938776 41.9142857,18.4040816 41.8591837,23.0326531 C41.822449,25.7693878 40.0959184,27.4040816 37.2306122,27.4408163 C33.5204082,27.4959184 29.8102041,27.4591837 26.0816327,27.4591837 C24.2632653,27.4591837 24.2632653,27.4591837 24.244898,29.3142857 C24.244898,30.6 24.2265306,31.8673469 24.244898,33.1530612 C24.244898,33.9612245 23.877551,34.3285714 23.0693878,34.3285714 C21.6734694,34.3285714 20.277551,34.3285714 18.9,34.3285714 C17.9632653,34.3285714 17.5959184,33.8693878 17.6142857,32.9510204 C17.6510204,31.5367347 17.577551,30.1040816 17.6326531,28.6897959 C17.6693878,27.6979592 17.2653061,27.422449 16.3285714,27.422449 C12.655102,27.4591837 9,27.4408163 5.32653061,27.4408163 C1.59795918,27.4408163 0.0367346939,25.8612245 0.0367346939,22.1510204 C0.0183673469,20.1857143 0.0183673469,18.1653061 0.0183673469,16.144898 M24.244898,15.9612245 L24.244898,15.9612245 C24.244898,17.8346939 24.2816327,19.7081633 24.244898,21.5816327 C24.2265306,22.5183673 24.5755102,22.8857143 25.5306122,22.8673469 C28.5428571,22.8306122 31.555102,22.8306122 34.5857143,22.8673469 C35.5591837,22.8857143 35.8897959,22.5 35.8714286,21.5632653 C35.8346939,17.9081633 35.8530612,14.2530612 35.8714286,10.5979592 C35.8714286,9.71632653 35.5408163,9.36734694 34.6408163,9.36734694 C31.5734694,9.40408163 28.5244898,9.40408163 25.4571429,9.36734694 C24.5387755,9.34897959 24.2265306,9.73469388 24.244898,10.5979592 C24.2632653,12.3979592 24.244898,14.1795918 24.244898,15.9612245 M6.04285714,16.0714286 L6.04285714,16.0714286 C6.04285714,17.944898 6.06122449,19.8183673 6.0244898,21.6918367 C6.00612245,22.4632653 6.24489796,22.8857143 7.12653061,22.8673469 C10.2306122,22.8489796 13.3530612,22.8306122 16.4571429,22.8673469 C17.2653061,22.8673469 17.6326531,22.6102041 17.6142857,21.7653061 C17.577551,18.0183673 17.577551,14.2714286 17.6142857,10.5061224 C17.6142857,9.67959184 17.3020408,9.36734694 16.4571429,9.38571429 C13.3897959,9.42244898 10.322449,9.40408163 7.27346939,9.38571429 C6.39183673,9.38571429 6.00612245,9.67959184 6.0244898,10.5795918 C6.06122449,12.4163265 6.04285714,14.2530612 6.04285714,16.0714286" id="Shape"></path>
            <path d="M68.4918367,33.3367347 C63.3306122,33.3367347 58.1877551,33.3367347 53.0265306,33.3367347 C49.7387755,33.3367347 48.0489796,31.6836735 48.0306122,28.4326531 C48.0122449,21.1040816 48.0122449,13.7938776 48.0306122,6.46530612 C48.0306122,2.84693878 49.6469388,1.28571429 53.3204082,1.28571429 C63.4959184,1.28571429 73.6714286,1.28571429 83.8285714,1.28571429 C87.6122449,1.28571429 89.1367347,2.79183673 89.1367347,6.55714286 C89.1367347,13.8306122 89.1367347,21.1040816 89.1367347,28.3959184 C89.1367347,31.7755102 87.5204082,33.355102 84.0857143,33.355102 C78.8877551,33.3367347 73.6897959,33.3367347 68.4918367,33.3367347 M68.5469388,28.9653061 C73.0102041,28.9653061 77.455102,28.9285714 81.9183673,28.9836735 C83.0571429,29.0020408 83.4428571,28.6530612 83.4428571,27.5142857 C83.4061224,20.6081633 83.4061224,13.7020408 83.4428571,6.79591837 C83.4428571,5.63877551 83.0387755,5.32653061 81.9183673,5.32653061 C73.0469388,5.36326531 64.1938776,5.36326531 55.322449,5.30816327 C54.1285714,5.30816327 53.6877551,5.62040816 53.7061224,6.85102041 C53.7612245,13.7204082 53.7612245,20.5714286 53.7244898,27.4408163 C53.7244898,28.6530612 54.1285714,29.0020408 55.3408163,28.9836735 C59.7306122,28.9285714 64.1387755,28.9653061 68.5469388,28.9653061" id="Shape"></path>
            <path d="M165.342857,27.477551 C167.510204,28.4142857 169.787755,28.855102 172.157143,28.8918367 C173.920408,28.9285714 175.683673,28.9469388 177.446939,28.9102041 C178.47551,28.8918367 178.953061,29.2040816 178.953061,30.3244898 C178.953061,33.9612245 178.934694,33.2081633 176.014286,33.3734694 C170.522449,33.6489796 165.287755,32.7673469 160.365306,30.2510204 C159.814286,29.9755102 158.840816,29.9755102 158.289796,30.2510204 C152.853061,33.1346939 146.993878,33.6673469 140.969388,33.355102 C140.014286,33.3 139.683673,32.9510204 139.665306,32.0326531 C139.591837,28.9285714 139.573469,28.9102041 142.677551,28.9469388 C145.836735,28.9653061 148.995918,29.0387755 152.044898,27.9734694 C152.504082,27.8081633 152.944898,27.6244898 153.771429,27.2938776 C152.210204,26.5040816 150.997959,25.8612245 149.785714,25.2734694 C147.195918,24.0061224 145.818367,21.9857143 145.965306,19.1204082 C146.038776,17.6877551 145.506122,17.2653061 144.128571,17.3755102 C142.75102,17.4857143 141.336735,17.3755102 139.940816,17.3938776 C139.114286,17.4122449 138.802041,17.044898 138.728571,16.255102 C138.397959,13.1142857 138.563265,12.9122449 141.759184,12.8755102 C142.218367,12.8755102 142.695918,12.8938776 143.155102,12.8755102 C143.981633,12.8387755 145.010204,13.077551 145.579592,12.6734694 C146.020408,12.3612245 145.726531,11.2040816 146.002041,10.5061224 C146.167347,10.0836735 146.718367,9.56938776 147.159184,9.51428571 C148.206122,9.36734694 149.289796,9.47755102 150.355102,9.44081633 C151.328571,9.40408163 151.659184,9.88163265 151.659184,10.7816327 C151.640816,13.3530612 151.695918,12.8387755 153.9,12.8571429 C157.702041,12.8755102 161.522449,12.8204082 165.32449,12.8938776 C166.536735,12.9122449 167.087755,12.6367347 167.014286,11.2959184 C166.904082,9.49591837 167.05102,9.45918367 168.869388,9.44081633 C169.236735,9.44081633 169.604082,9.44081633 169.989796,9.44081633 C172.506122,9.45918367 172.52449,9.45918367 172.708163,11.8469388 C172.763265,12.6183673 173.093878,12.8938776 173.828571,12.8938776 C175.353061,12.8755102 176.895918,12.9122449 178.420408,12.8755102 C179.504082,12.8387755 179.889796,13.3346939 179.926531,14.344898 C180.073469,17.3938776 180.091837,17.4122449 177.006122,17.3938776 C176.914286,17.3938776 176.822449,17.3938776 176.730612,17.3938776 C175.518367,17.4306122 174.030612,17.044898 173.204082,17.6142857 C172.561224,18.055102 172.744898,19.6714286 172.542857,20.755102 C172.083673,23.2163265 170.338776,24.5755102 168.226531,25.6040816 C167.234694,26.0816327 166.242857,26.5591837 165.25102,27.0367347 C165.306122,27.1836735 165.32449,27.3306122 165.342857,27.477551 M166.977551,18.7163265 C167.197959,17.6877551 166.702041,17.3387755 165.6,17.3387755 C161.742857,17.3755102 157.904082,17.3387755 154.046939,17.3755102 C153.293878,17.3938776 151.879592,17.7428571 151.879592,17.8530612 C151.953061,19.0285714 152.191837,20.2040816 152.577551,21.3244898 C152.706122,21.7102041 153.34898,21.9489796 153.789796,22.1877551 C159.116327,24.9428571 159.116327,24.9428571 164.516327,22.3530612 C164.608163,22.3163265 164.681633,22.2795918 164.773469,22.2428571 C166.297959,21.5816327 167.069388,20.4612245 166.977551,18.7163265" id="Shape"></path>
            <path d="M114.318367,1.94693878 C119.883673,1.94693878 125.467347,1.94693878 131.032653,1.94693878 C133.383673,1.94693878 133.383673,1.96530612 133.383673,4.20612245 C133.383673,4.38979592 133.365306,4.57346939 133.383673,4.75714286 C133.493878,5.91428571 133.016327,6.39183673 131.785714,6.37346939 C127.597959,6.31836735 123.428571,6.41020408 119.240816,6.31836735 C117.881633,6.3 117.477551,6.70408163 117.495918,8.02653061 C117.569388,12.3795918 117.569388,16.7326531 117.495918,21.0673469 C117.477551,22.4265306 117.955102,22.7755102 119.277551,22.7387755 C123.832653,22.6653061 128.387755,22.7571429 132.92449,22.7020408 C134.246939,22.6836735 134.72449,23.1061224 134.687755,24.4285714 C134.632653,27.7530612 134.742857,27.2571429 131.859184,27.2755102 C127.763265,27.2938776 123.685714,27.2755102 119.589796,27.2755102 C117.495918,27.2755102 117.495918,27.2755102 117.495918,29.4061224 C117.495918,30.544898 117.459184,31.7020408 117.495918,32.8408163 C117.532653,33.8877551 117.091837,34.3653061 116.026531,34.3469388 C114.814286,34.3285714 113.620408,34.3285714 112.408163,34.3285714 C111.544898,34.3285714 111.140816,33.9428571 111.159184,33.0612245 C111.195918,31.5918367 111.104082,30.122449 111.177551,28.6714286 C111.232653,27.5877551 110.828571,27.2387755 109.744898,27.2387755 C105.153061,27.2755102 100.542857,27.2571429 95.9510204,27.2571429 C94.022449,27.2571429 93.9857143,27.2204082 93.9489796,25.3653061 C93.9489796,25.0897959 93.9489796,24.8142857 93.9489796,24.5387755 C93.9673469,22.8306122 94.0591837,22.7204082 95.7489796,22.7204082 C100.304082,22.7020408 104.859184,22.6653061 109.395918,22.7204082 C110.681633,22.7387755 111.195918,22.4265306 111.177551,21.0489796 C111.104082,16.6591837 111.104082,12.2510204 111.159184,7.86122449 C111.177551,6.66734694 110.791837,6.26326531 109.579592,6.3 C105.446939,6.37346939 101.314286,6.33673469 97.1816327,6.31836735 C95.344898,6.31836735 95.2897959,6.24489796 95.2714286,4.48163265 C95.2530612,1.91020408 95.2530612,1.89183673 97.8244898,1.89183673 C103.371429,1.92857143 108.844898,1.92857143 114.318367,1.94693878 L114.318367,1.94693878 L114.318367,1.94693878 Z" id="Path"></path>
            <path d="M83.5346939,59.9510204 C83.5346939,62.4673469 83.5714286,64.9836735 83.5163265,67.5 C83.4979592,68.6571429 83.9204082,69.1163265 85.1510204,69.0979592 C89.8346939,69.0428571 94.5367347,69.0612245 99.2204082,69.0979592 C100.432653,69.1163265 100.910204,68.6755102 100.855102,67.5 C100.8,66.3061224 100.836735,65.1122449 100.855102,63.9367347 C100.873469,63.055102 100.52449,62.7244898 99.6061224,62.7428571 C97.5122449,62.7795918 95.4183673,62.7244898 93.3428571,62.7612245 C92.3326531,62.7795918 91.9285714,62.4122449 91.9469388,61.4020408 C92.0020408,57.6918367 91.5795918,58.3897959 94.8857143,58.3530612 C98.3204082,58.3163265 101.755102,58.4081633 105.189796,58.3163265 C106.457143,58.2795918 106.806122,58.7020408 106.75102,59.8959184 C106.677551,61.677551 106.659184,63.477551 106.75102,65.2408163 C107.008163,70.0897959 103.004082,73.6530612 99.1285714,73.9285714 C94.5183673,74.2591837 89.8346939,74.277551 85.2428571,73.9102041 C80.6877551,73.5428571 77.6020408,69.7591837 77.5469388,65.2408163 C77.5102041,61.5857143 77.5102041,57.9122449 77.5653061,54.2571429 C77.6204082,50.0510204 80.7979592,46.1571429 85.077551,45.844898 C89.7795918,45.4959184 94.555102,45.5142857 99.2571429,45.844898 C103.444898,46.1571429 106.677551,49.977551 106.769388,53.7979592 C106.787755,54.844898 106.47551,55.377551 105.355102,55.2489796 C105.171429,55.2306122 104.987755,55.2489796 104.804082,55.2489796 C103.646939,55.2122449 102.159184,55.5795918 101.442857,55.0102041 C100.8,54.4959184 100.983673,52.9530612 100.891837,51.8510204 C100.818367,50.9877551 100.377551,50.6387755 99.5510204,50.6387755 C94.6836735,50.6387755 89.7979592,50.6387755 84.9306122,50.6387755 C83.9020408,50.6387755 83.5714286,51.1714286 83.5714286,52.1081633 C83.5530612,54.7346939 83.5346939,57.3428571 83.5346939,59.9510204 L83.5346939,59.9510204 L83.5346939,59.9510204 Z" id="Path"></path>
            <path d="M67.3897959,65.4244898 C67.3897959,63.7530612 67.3897959,62.0632653 67.3897959,60.3918367 C67.3897959,56.1857143 67.4265306,51.9612245 67.3530612,47.755102 C67.3346939,46.4326531 67.7204082,45.8816327 69.1714286,45.9367347 C73.3040816,46.1020408 72.8081633,45.3122449 72.8265306,49.5 C72.844898,57.0122449 72.844898,64.5244898 72.8265306,72.0367347 C72.8265306,73.7265306 72.7163265,73.8183673 71.0265306,73.855102 C70.5673469,73.855102 70.0897959,73.8183673 69.6306122,73.8734694 C67.9959184,74.0755102 66.8571429,73.4142857 65.7918367,72.1836735 C60.6673469,66.3428571 55.4510204,60.5571429 50.2714286,54.7530612 C50.0326531,54.477551 49.8489796,54.1469388 49.6469388,53.8530612 L49.2612245,54.055102 C49.2244898,54.6244898 49.1510204,55.1938776 49.1510204,55.7632653 C49.1510204,61.1265306 49.1693878,66.4714286 49.1510204,71.8346939 C49.1510204,73.7632653 49.022449,73.8734694 47.1122449,73.8734694 C42.8326531,73.9102041 43.7142857,73.855102 43.6959184,70.622449 C43.6408163,62.9816327 43.7142857,55.322449 43.6591837,47.6816327 C43.6591837,46.3591837 44.1,46.0836735 45.3857143,45.9 C48.4714286,45.4591837 50.3265306,46.8918367 52.1816327,49.077551 C56.5346939,54.2020408 61.1081633,59.1428571 65.5714286,64.1571429 C66.0306122,64.6714286 66.3979592,65.222449 66.8204082,65.7734694 C67.0040816,65.6632653 67.1877551,65.5346939 67.3897959,65.4244898" id="Path"></path>
            <path d="M174.453061,65.4244898 C174.453061,64.3408163 174.453061,63.2571429 174.453061,62.1734694 C174.453061,57.3612245 174.471429,52.5673469 174.434694,47.755102 C174.416327,46.4510204 174.710204,45.8632653 176.216327,45.9183673 C180.422449,46.0836735 179.871429,45.2571429 179.889796,49.5734694 C179.908163,57.0306122 179.889796,64.4877551 179.889796,71.9632653 C179.889796,73.8 179.779592,73.7265306 177.906122,73.9102041 C175.426531,74.1673469 173.773469,73.2673469 172.193878,71.3938776 C167.583673,66.0122449 162.789796,60.7959184 158.05102,55.5061224 C157.591837,55.0102041 157.132653,54.5142857 156.361224,53.6693878 C156.269388,54.7163265 156.177551,55.3591837 156.177551,56.0020408 C156.159184,61.3653061 156.140816,66.7102041 156.195918,72.0734694 C156.214286,73.4877551 155.644898,73.8734694 154.322449,73.8918367 C150.759184,73.9102041 150.759184,73.9469388 150.759184,70.4755102 C150.759184,62.8714286 150.777551,55.2857143 150.740816,47.6816327 C150.740816,46.3959184 151.108163,46.0469388 152.44898,45.9 C155.277551,45.6061224 157.169388,46.5979592 158.969388,48.7469388 C163.469388,54.0918367 168.244898,59.2163265 172.891837,64.4510204 C173.259184,64.855102 173.516327,65.3510204 173.828571,65.7918367 C174.04898,65.6816327 174.25102,65.5530612 174.453061,65.4244898" id="Path"></path>
            <path d="M10.322449,45.9734694 C13.1142857,45.9734694 15.8877551,45.8632653 18.6795918,45.9918367 C22.3714286,46.1571429 25.6408163,47.6632653 26.8897959,51.1346939 C29.2959184,57.8020408 27.7346939,64.5979592 18.9734694,65.1489796 C15.1897959,65.3877551 11.3693878,65.2408163 7.56734694,65.2040816 C6.44693878,65.1857143 5.96938776,65.4795918 6.0244898,66.655102 C6.09795918,68.5285714 5.9877551,70.4020408 6.04285714,72.2755102 C6.07959184,73.3959184 5.65714286,73.8918367 4.51836735,73.855102 C3.48979592,73.8367347 2.47959184,73.8367347 1.45102041,73.8367347 C0.404081633,73.855102 1.42108547e-14,73.4326531 1.42108547e-14,72.3489796 C0.0367346939,63.9734694 0.0367346939,55.6163265 1.42108547e-14,47.2408163 C1.42108547e-14,46.1755102 0.440816327,45.9 1.41428571,45.9183673 C4.38979592,45.9734694 7.34693878,45.955102 10.322449,45.9734694 C10.322449,45.9734694 10.322449,45.9734694 10.322449,45.9734694 M13.5367347,60.5204082 L13.5367347,60.5204082 C15.722449,60.5204082 17.8897959,60.5020408 20.0755102,60.5204082 C21.0489796,60.5204082 21.5081633,60.1346939 21.4897959,59.1244898 C21.4530612,56.7918367 21.4530612,54.4591837 21.4714286,52.1265306 C21.4897959,51.0795918 21.0122449,50.6387755 19.9653061,50.6387755 C15.7408163,50.6571429 11.5346939,50.6755102 7.31020408,50.6387755 C6.33673469,50.6387755 6.00612245,51.0061224 6.0244898,51.9428571 C6.06122449,54.3673469 6.07959184,56.7918367 6.0244898,59.1979592 C6.00612245,60.244898 6.44693878,60.5387755 7.42040816,60.5204082 C9.45918367,60.4836735 11.4979592,60.5204082 13.5367347,60.5204082" id="Shape"></path>
            <path d="M130.922449,52.2 C129.361224,55.2673469 127.946939,57.9857143 126.569388,60.722449 C124.54898,64.6897959 122.528571,68.6387755 120.544898,72.6244898 C120.122449,73.4693878 119.553061,73.8918367 118.597959,73.8734694 C117.661224,73.855102 116.742857,73.855102 115.806122,73.8183673 C114.006122,73.744898 113.859184,73.5428571 114.64898,72 C117.642857,66.1591837 120.636735,60.3367347 123.64898,54.5142857 C124.916327,52.0714286 126.183673,49.6285714 127.432653,47.1673469 C127.873469,46.2857143 128.497959,45.9183673 129.526531,45.9367347 C134.797959,46.0469388 133.457143,45.1836735 135.771429,49.6285714 C139.628571,57.0306122 143.412245,64.4693878 147.214286,71.8897959 C148.059184,73.5244898 147.857143,73.855102 145.946939,73.855102 C141.263265,73.855102 142.310204,74.3142857 140.4,70.6040816 C137.497959,64.9836735 134.65102,59.3265306 131.785714,53.6877551 C131.583673,53.3020408 131.344898,52.9346939 130.922449,52.2" id="Path"></path>
            <path d="M148.977551,2.60816327 C150.92449,2.60816327 152.889796,2.57142857 154.836735,2.62653061 C155.755102,2.64489796 156.269388,2.40612245 156.177551,1.41428571 C156.085714,0.404081633 156.636735,0.0183673469 157.610204,0.0367346939 C158.822449,0.0551020408 160.034694,0.0551020408 161.228571,0.0551020408 C162.091837,0.0551020408 162.569388,0.404081633 162.459184,1.28571429 C162.330612,2.46122449 162.991837,2.62653061 163.983673,2.62653061 C167.693878,2.58979592 171.422449,2.7 175.132653,2.58979592 C179.320408,2.46122449 180.055102,5.74897959 179.595918,8.6877551 C179.559184,8.92653061 179.210204,9.3122449 178.989796,9.33061224 C177.832653,9.38571429 176.657143,9.44081633 175.518367,9.2755102 C175.22449,9.23877551 174.857143,8.3755102 174.857143,7.89795918 C174.87551,6.83265306 174.508163,6.46530612 173.406122,6.46530612 C164.112245,6.50204082 154.818367,6.50204082 145.52449,6.46530612 C144.257143,6.46530612 143.559184,6.75918367 143.761224,8.15510204 C143.889796,9.11020408 143.37551,9.40408163 142.438776,9.44081633 C138.912245,9.56938776 138.544898,9.16530612 139.077551,5.69387755 C139.353061,3.93061224 140.822449,2.68163265 142.806122,2.62653061 C144.881633,2.55306122 146.938776,2.58979592 148.977551,2.60816327 L148.977551,2.60816327 L148.977551,2.60816327 Z" id="Path"></path>
            <path d="M32.0877551,59.9510204 C32.0877551,55.8367347 32.1244898,51.722449 32.0693878,47.5897959 C32.0510204,46.3040816 32.5102041,45.9367347 33.7591837,45.9367347 C38.0938776,45.9183673 38.1122449,45.8816327 38.1122449,50.1795918 C38.1122449,57.5081633 38.0755102,64.8183673 38.1489796,72.1469388 C38.1673469,73.5061224 37.6530612,73.8734694 36.3857143,73.9102041 C32.1061224,74.0020408 32.1061224,74.0204082 32.1061224,69.8510204 C32.0877551,66.5265306 32.0877551,63.2387755 32.0877551,59.9510204" id="Path"></path>
            <path d="M135.238776,69.7040816 C135.238776,70.7142857 135.220408,71.7244898 135.238776,72.7346939 C135.257143,73.5428571 134.871429,73.9102041 134.063265,73.9102041 C131.969388,73.9102041 129.87551,73.9102041 127.8,73.9102041 C126.955102,73.9102041 126.661224,73.4877551 126.661224,72.6979592 C126.679592,70.7326531 126.679592,68.7673469 126.661224,66.7836735 C126.661224,65.9387755 126.991837,65.5163265 127.910204,65.5346939 C129.912245,65.5714286 131.914286,65.5714286 133.897959,65.5346939 C134.834694,65.5163265 135.27551,65.8469388 135.238776,66.8204082 C135.202041,67.7755102 135.238776,68.7306122 135.238776,69.7040816 L135.238776,69.7040816 L135.238776,69.7040816 Z" id="Path"></path>
            <path d="M131.491837,9.14693878 C131.161224,9.93673469 130.995918,10.4510204 130.757143,10.9102041 C129.434694,13.4816327 128.07551,16.0163265 126.789796,18.6061224 C126.330612,19.5428571 125.687755,20.0020408 124.622449,19.9836735 C123.061224,19.9469388 121.518367,19.9836735 119.773469,19.9836735 C119.97551,19.3591837 120.04898,18.9918367 120.195918,18.6979592 C121.646939,15.8877551 123.134694,13.1142857 124.567347,10.2857143 C124.971429,9.49591837 125.522449,9.12857143 126.422449,9.14693878 C128.002041,9.18367347 129.563265,9.14693878 131.491837,9.14693878" id="Path"></path>
            <path d="M108.9,19.9102041 C106.916327,19.9102041 105.134694,19.9469388 103.334694,19.8734694 C102.985714,19.855102 102.508163,19.5428571 102.342857,19.2306122 C100.616327,16.0163265 98.944898,12.7653061 97.0897959,9.23877551 C99.3306122,9.23877551 101.277551,9.20204082 103.22449,9.2755102 C103.481633,9.2755102 103.830612,9.69795918 103.977551,10.0102041 C105.57551,13.0408163 107.155102,16.0897959 108.734694,19.1387755 C108.826531,19.2857143 108.808163,19.4877551 108.9,19.9102041" id="Path"></path>
            <path d="M80.2285714,20.5163265 C80.2285714,22.2061224 80.2285714,23.6755102 80.2285714,25.1265306 C80.2285714,26.1367347 79.4387755,25.9714286 78.8142857,25.9714286 C73.3408163,25.9714286 67.8489796,25.9714286 62.3755102,25.9714286 C60.9795918,25.9714286 59.5836735,25.9346939 58.1877551,25.9714286 C57.2693878,25.9897959 56.8653061,25.7142857 56.9020408,24.722449 C57.0122449,22.1326531 56.4979592,22.2979592 59.3816327,22.2795918 C61.0163265,22.2612245 62.6326531,22.2428571 64.2673469,22.2979592 C65.3510204,22.3346939 65.8469388,22.022449 65.8285714,20.8285714 C65.7734694,17.7428571 65.9387755,18.2755102 63.2204082,18.2387755 C61.9714286,18.2204082 60.7040816,18.2020408 59.455102,18.2571429 C58.555102,18.2938776 58.1510204,18 58.2428571,17.0816327 C58.2795918,16.677551 58.2612245,16.255102 58.2428571,15.8510204 C58.1693878,15.0244898 58.5183673,14.7306122 59.3816327,14.7489796 C61.144898,14.8040816 62.9081633,14.7306122 64.6714286,14.7857143 C65.644898,14.822449 65.8836735,14.3816327 65.8285714,13.5367347 C65.7918367,12.7469388 65.9204082,11.9387755 64.6897959,11.9571429 C62.1918367,11.9938776 59.6755102,11.9755102 56.9387755,11.9755102 C56.9387755,10.9102041 56.8469388,9.93673469 56.9938776,9.01836735 C57.0489796,8.70612245 57.7285714,8.26530612 58.1326531,8.26530612 C60.6857143,8.19183673 63.2387755,8.21020408 65.7918367,8.21020408 C70.1081633,8.21020408 74.4244898,8.24693878 78.7591837,8.19183673 C79.8979592,8.17346939 80.3204082,8.46734694 80.2653061,9.64285714 C80.155102,12.3428571 80.522449,11.9204082 77.8591837,11.9571429 C76.0959184,11.9755102 74.3326531,12.0122449 72.5693878,11.9571429 C71.3755102,11.9204082 71.3755102,12.6367347 71.3571429,13.4632653 C71.3387755,14.344898 71.5408163,14.822449 72.6061224,14.7673469 C74.222449,14.6938776 75.8571429,14.822449 77.4734694,14.7306122 C78.6489796,14.6571429 79.0897959,15.0612245 78.9979592,16.2 C78.9428571,16.7877551 78.9979592,17.3755102 78.9979592,18.2387755 C77.2346939,18.2387755 75.6,18.2387755 73.9469388,18.2387755 C71.4122449,18.2387755 70.7693878,19.0836735 71.4122449,21.5816327 C71.4306122,21.6734694 71.4489796,21.8387755 71.4857143,21.8387755 C72.6795918,22.0040816 73.855102,22.2428571 75.0673469,22.2795918 C75.3979592,22.2979592 76.0040816,21.7836735 76.0408163,21.4714286 C76.1510204,20.6265306 76.5918367,20.5346939 77.2714286,20.5530612 C78.1530612,20.5346939 79.0714286,20.5163265 80.2285714,20.5163265" id="Path"></path>
        </g>
    </g>
</svg>