<?xml version="1.0" encoding="UTF-8"?>
<svg width="180px" height="90px" viewBox="0 0 180 90" version="1.1" xmlns="http://www.w3.org/2000/svg" xmlns:xlink="http://www.w3.org/1999/xlink">
    <!-- Generator: Sketch 57.1 (83088) - https://sketch.com -->
    <title>tencent-logo</title>
    <desc>Created with Sketch.</desc>
    <g id="tencent-logo" stroke="none" stroke-width="1" fill="none" fill-rule="evenodd">
        <g transform="translate(0.000000, 33.000000)" fill="#FFFFFF" fill-rule="nonzero" id="Shape">
            <path d="M117.191639,7.39111765 L111.74144,7.39111765 L113.884767,10.4175882 L116.647516,10.4175882 L114.325802,23.4375882 L119.164647,23.4375882 L121.491739,10.4175882 L127.528193,10.4175882 L117.998412,2.87082353 L117.191639,7.39111765 L117.191639,7.39111765 Z M22.5905235,0 L0.600583267,0 L-1.43426294e-05,3.40941176 L8.53833227,3.40941176 L4.96074263,23.4379412 L9.80138008,23.4379412 L13.3789697,3.40941176 L21.9899259,3.40941176 L22.5905235,0 Z"></path>
            <path d="M28.6789697,13.7084965 L20.261639,13.7084965 C20.7672167,12.06732 22.4022765,9.79879059 25.3801649,9.79879059 C28.6198064,9.79879059 28.9622367,12.2226141 28.6789697,13.7084965 L28.6789697,13.7084965 Z M26.1708024,7.02996706 C20.0178143,7.02996706 16.0798661,10.8417318 15.2981928,15.2693788 C14.4313602,20.1867318 17.5006829,23.7858494 23.7092486,23.7858494 C26.483651,23.7858494 29.0796669,23.27232 31.1880335,22.1182024 L31.8433124,18.4511435 C29.7833522,19.9034965 27.1622367,20.7161435 24.9400255,20.7161435 C21.8447068,20.7161435 19.3840494,19.44732 19.7713004,16.53732 L32.5613402,16.53732 C32.7155235,16.19232 32.9001849,15.5870259 33.0337506,14.8317318 C33.6531729,11.3190847 32.3874359,7.02996706 26.1708024,7.02996706 L26.1708024,7.02996706 Z M47.5464335,7.03102588 C44.5255171,7.03102588 42.2629673,8.26367294 41.1962343,9.50955529 L41.0832861,9.50955529 L36.8226287,7.03102588 C36.6657562,8.42161412 36.4559952,10.3098494 36.128804,12.1636729 L34.140557,23.4374965 L38.9794016,23.4374965 L40.6628677,13.99632 C40.743545,13.5330847 40.9031068,13.0416141 41.1119713,12.7080847 C41.8344813,11.4692612 43.3521108,10.3283788 45.2749195,10.3283788 C47.9166526,10.3283788 48.6355769,12.0824965 48.2295012,14.3836729 L46.6114733,23.4374965 L51.4521108,23.4374965 L53.1561944,13.9072024 C54.0517124,8.83279059 50.8810948,7.03102588 47.5464335,7.03102588 L47.5464335,7.03102588 Z M105.610052,7.03102588 C102.588239,7.03102588 100.326586,8.26367294 99.2598526,9.50955529 L99.1469044,9.50955529 L94.886247,7.03102588 C94.7293745,8.42161412 94.5196135,10.3098494 94.1915259,12.1636729 L92.2041753,23.4374965 L97.0421235,23.4374965 L98.7264861,13.99632 C98.8062669,13.5330847 98.9667251,13.0416141 99.1737968,12.7080847 C99.8980996,11.4692612 101.414833,10.3283788 103.336745,10.3283788 C105.981167,10.3283788 106.699195,12.0824965 106.29312,14.3836729 L104.675988,23.4374965 L109.515729,23.4374965 L111.218916,13.9072024 C112.113538,8.83279059 108.944713,7.03102588 105.610052,7.03102588 L105.610052,7.03102588 Z M86.7425952,13.7084965 L78.3252645,13.7084965 C78.8308422,12.06732 80.465902,9.79879059 83.4419976,9.79879059 C86.6834319,9.79879059 87.0258622,12.2226141 86.7425952,13.7084965 L86.7425952,13.7084965 Z M84.2335315,7.02996706 C78.0814398,7.02996706 74.1434916,10.8417318 73.3618183,15.2693788 C72.4949857,20.1867318 75.5643084,23.7858494 81.7728741,23.7858494 C84.5463801,23.7858494 87.1432924,23.27232 89.251659,22.1182024 L89.9069378,18.4511435 C87.8469777,19.9034965 85.2258622,20.7161435 83.0027546,20.7161435 C79.9092287,20.7161435 77.4503641,19.44732 77.8349259,16.53732 L90.627655,16.53732 C90.779149,16.19232 90.9647068,15.5870259 91.1000653,14.8317318 C91.7167984,11.3190847 90.4501649,7.02996706 84.2335315,7.02996706 L84.2335315,7.02996706 Z M55.1872829,15.1987059 C54.3096932,20.1795882 57.8523227,23.784 63.8484382,23.784 C66.2329004,23.784 69.0799124,23.1098824 70.1582988,22.7154706 L70.9408685,18.4263529 C69.2591952,20.2069412 66.9796135,20.5766471 65.3624821,20.5766471 C62.0681594,20.5766471 59.5743347,18.6884118 60.1543147,15.399 C60.6580996,12.4572353 63.4880797,10.1966471 67.1777211,10.1966471 C68.6801116,10.1966471 70.7185578,10.6916471 72.0040159,12.3566471 L72.7543147,7.99429412 C71.7135777,7.60076471 70.0471434,7.03958824 67.5811076,7.03958824 C60.8526215,7.03958824 56.0352908,10.3951765 55.1872829,15.1987059 L55.1872829,15.1987059 Z M149.531307,10.8029082 C149.073239,10.2990847 148.589175,9.47584941 148.292462,8.89349647 L147.294753,8.89349647 C146.755112,9.55614353 145.946546,10.2990847 145.246446,10.8029082 L149.531307,10.8029082 Z M148.534494,12.7926141 L142.632502,12.7926141 L144.410988,13.5884965 L144.087382,15.1802612 L147.995749,15.1802612 L148.534494,12.7926141 Z M151.337582,12.4220259 L150.718159,15.1802612 L152.038578,15.1802612 C152.927821,15.1802612 153.575032,15.3664376 153.412781,16.4543788 C153.116068,18.4167318 152.578219,21.1493788 152.146147,23.4584965 L144.976625,23.4584965 L144.384096,21.3629082 L149.666665,21.3629082 C149.909594,20.2476141 150.206307,18.8949671 150.367661,17.7814376 C150.421446,17.4090847 150.260092,17.2758494 149.881805,17.2758494 L140.933797,17.2758494 L141.742363,13.0043788 C141.095151,13.2964376 140.125231,13.6158494 139.181307,13.8002612 L139.747841,11.2282024 C141.419653,10.8302612 143.116566,10.0326141 144.16806,8.89349647 L140.179016,8.89349647 L140.637084,6.87643765 L145.570052,6.87643765 C145.838976,6.50584941 146.055012,6.02761412 146.163478,5.68261412 L140.826227,5.68261412 L141.23051,3.58702588 L143.144355,3.58702588 L142.443359,0.482025882 L145.165769,0.482025882 L145.81298,3.58702588 L146.755112,3.58702588 C147.051825,2.55202588 147.267861,1.17202588 147.294753,0.0311435294 L150.070948,0.0311435294 C150.017163,1.17202588 149.855809,2.52467294 149.585988,3.58702588 L150.690371,3.58702588 C151.122442,2.63232 151.552721,1.49143765 151.903219,0.482025882 L154.679414,0.482025882 C154.30292,1.43849647 153.817064,2.60496706 153.358996,3.58702588 L155.299733,3.58702588 L154.78788,5.68261412 L148.993458,5.68261412 C148.884992,6.02761412 148.668956,6.53143765 148.480709,6.87643765 L155.596446,6.87643765 L155.111486,8.89349647 L150.961088,8.89349647 C151.849434,10.1932024 153.979315,11.1752612 155.623339,11.5184965 L154.707203,13.8002612 C153.575032,13.5629082 152.335291,13.0317318 151.337582,12.4220259 L151.337582,12.4220259 Z M148.318458,20.3279082 L139.181307,20.3279082 L138.804813,18.2852612 L148.777422,18.2852612 L148.777422,18.3108141 L148.318458,20.3278729 L148.318458,20.3279082 Z M137.564175,2.89702588 L136.217761,2.89702588 C136.000829,4.17114353 135.785689,5.49643765 135.516765,6.87643765 L137.349036,6.87643765 L138.023139,3.40084941 C138.103817,3.00290824 137.942462,2.89702588 137.564175,2.89702588 L137.564175,2.89702588 Z M136.998538,8.97202588 L135.138478,8.97202588 C134.869554,10.3520259 134.572841,11.7849671 134.276127,13.2179082 L136.217761,13.2179082 L136.998538,8.97202588 L136.998538,8.97202588 Z M140.744653,2.15408471 C139.424235,9.29143765 138.239175,16.3484965 136.890968,23.4584965 L134.168558,23.4584965 C134.708199,20.7787906 135.327622,17.9402612 135.785689,15.3134965 L133.845849,15.3134965 C133.252422,18.0717318 132.633,20.8317318 132.039574,23.4584965 L129.317163,23.4584965 C131.607502,16.2682024 132.74057,8.86614353 134.033199,0.695555294 L139.127522,0.695555294 C140.448837,0.695555294 140.987582,0.90732 140.744653,2.15408471 L140.744653,2.15408471 Z M178.167622,0.721235294 L165.581068,0.721235294 L166.118916,3.08152941 L175.526785,3.08152941 C176.146207,3.08152941 176.44292,3.16182353 176.307562,3.85182353 C175.957064,5.76123529 175.58057,7.698 175.202283,9.58182353 L171.105669,9.58182353 L171.806665,5.54947059 L168.950689,3.90476471 L167.899195,9.58182353 L164.852283,9.58182353 L164.448,11.9438824 L167.441127,11.9438824 C166.819912,15.7644706 166.065131,19.6635882 165.284355,23.4841765 L168.544614,23.4841765 C169.299394,19.638 170.054175,15.7900588 170.701386,11.9438824 L174.772004,11.9438824 C174.097004,15.7900588 173.342223,19.7438824 172.587442,23.4841765 L178.356765,23.4841765 L179.352681,21.0965294 L176.281566,21.0965294 C177.494414,15.0215294 178.761048,8.68005882 179.838538,2.55211765 C180.081466,1.22505882 179.812506,0.721235294 178.167622,0.721235294 L178.167622,0.721235294 Z M164.34043,5.60241176 C163.936147,3.74594118 163.424295,1.80917647 162.992223,0.00564705882 L159.947104,0.00564705882 C160.351386,1.83476471 160.783458,3.79888235 161.133956,5.60241176 L164.34043,5.60241176 Z M157.682761,6.84917647 L163.342721,6.84917647 C162.777084,10.5638824 162.129873,14.3315294 161.40288,18.0991765 C162.480371,17.3032941 163.613438,16.4535882 164.637143,15.5782941 L164.043717,19.0009412 C162.129873,20.5927059 159.489036,22.4491765 157.063339,23.8018235 C158.114833,19.0009412 159.084753,13.9062353 159.785749,9.21123529 L157.252482,9.21123529 L157.682761,6.84917647 L157.682761,6.84917647 Z"></path>
        </g>
    </g>
</svg>